<svg id="Layer_1" data-name="Layer 1" xmlns="http://www.w3.org/2000/svg" xmlns:xlink="http://www.w3.org/1999/xlink" viewBox="0 0 442.6 423.3"><defs><style>.cls-1,.cls-2{opacity:0.37;}.cls-1,.cls-19,.cls-2,.cls-23,.cls-28,.cls-29{isolation:isolate;}.cls-1{fill:url(#linear-gradient);}.cls-2{fill:url(#linear-gradient-2);}.cls-3{fill:#e9fdff;}.cls-4{fill:url(#linear-gradient-3);}.cls-5{fill:#111023;}.cls-6{fill:url(#linear-gradient-4);}.cls-7{fill:url(#linear-gradient-5);}.cls-8{fill:url(#linear-gradient-6);}.cls-9{fill:url(#linear-gradient-7);}.cls-10{fill:url(#linear-gradient-8);}.cls-11{fill:url(#linear-gradient-9);}.cls-12{fill:url(#linear-gradient-10);}.cls-13{fill:#5b2b89;}.cls-14{fill:url(#linear-gradient-11);}.cls-15{fill:url(#linear-gradient-12);}.cls-16{fill:url(#linear-gradient-13);}.cls-17{fill:url(#linear-gradient-14);}.cls-18{fill:url(#linear-gradient-15);}.cls-19{opacity:0.38;fill:url(#linear-gradient-16);}.cls-20{fill:url(#linear-gradient-17);}.cls-21{fill:#f79244;}.cls-22{fill:#fff;}.cls-23{opacity:0.5;fill:url(#linear-gradient-18);}.cls-24{fill:url(#linear-gradient-19);}.cls-25{fill:url(#linear-gradient-20);}.cls-26{fill:#2a2a2a;}.cls-27{fill:url(#linear-gradient-21);}.cls-28,.cls-29{font-size:35px;fill:#06558d;font-family:FuturaBT-Book, Futura Bk BT;}.cls-28{letter-spacing:-0.03em;}</style><linearGradient id="linear-gradient" x1="213.71" y1="789.02" x2="227.6" y2="579.25" gradientTransform="translate(0 -418.67)" gradientUnits="userSpaceOnUse"><stop offset="0" stop-color="#31d1d6"/><stop offset="0.37" stop-color="#32ced8"/><stop offset="0.62" stop-color="#36c6df"/><stop offset="0.82" stop-color="#3cb7eb"/><stop offset="1" stop-color="#45a3fa"/></linearGradient><linearGradient id="linear-gradient-2" x1="224.93" y1="789.01" x2="238.82" y2="579.24" xlink:href="#linear-gradient"/><linearGradient id="linear-gradient-3" x1="182.26" y1="654.68" x2="209.73" y2="647.58" xlink:href="#linear-gradient"/><linearGradient id="linear-gradient-4" x1="127.8" y1="628.62" x2="188.9" y2="628.62" xlink:href="#linear-gradient"/><linearGradient id="linear-gradient-5" x1="85.16" y1="506.92" x2="130.16" y2="506.92" gradientTransform="translate(0 -418.67)" gradientUnits="userSpaceOnUse"><stop offset="0" stop-color="#51adc6"/><stop offset="0.01" stop-color="#55afc4"/><stop offset="0.07" stop-color="#74bfb5"/><stop offset="0.13" stop-color="#8fcda7"/><stop offset="0.21" stop-color="#a5d89d"/><stop offset="0.3" stop-color="#b6e194"/><stop offset="0.41" stop-color="#c1e78e"/><stop offset="0.57" stop-color="#c8ea8b"/><stop offset="1" stop-color="#caeb8a"/></linearGradient><linearGradient id="linear-gradient-6" x1="87.64" y1="501.67" x2="80.37" y2="501.67" gradientTransform="translate(0 -418.67)" gradientUnits="userSpaceOnUse"><stop offset="0" stop-color="#8aebd6"/><stop offset="0.46" stop-color="#89e9d7"/><stop offset="0.63" stop-color="#84e2da"/><stop offset="0.75" stop-color="#7dd7de"/><stop offset="0.84" stop-color="#72c6e5"/><stop offset="0.92" stop-color="#64b0ee"/><stop offset="0.99" stop-color="#5395f9"/><stop offset="1" stop-color="#5193fa"/></linearGradient><linearGradient id="linear-gradient-7" x1="88.97" y1="506.12" x2="80.33" y2="506.12" xlink:href="#linear-gradient"/><linearGradient id="linear-gradient-8" x1="88.99" y1="511.22" x2="81.04" y2="511.22" xlink:href="#linear-gradient-6"/><linearGradient id="linear-gradient-9" x1="130.1" y1="506.52" x2="156.55" y2="506.52" xlink:href="#linear-gradient"/><linearGradient id="linear-gradient-10" x1="118.55" y1="514.8" x2="131.16" y2="514.8" gradientTransform="translate(0 -418.67)" gradientUnits="userSpaceOnUse"><stop offset="0" stop-color="#f7be86"/><stop offset="0.33" stop-color="#f7bc83"/><stop offset="0.54" stop-color="#f7b67b"/><stop offset="0.73" stop-color="#f7ac6c"/><stop offset="0.89" stop-color="#f79e57"/><stop offset="1" stop-color="#f79244"/></linearGradient><linearGradient id="linear-gradient-11" x1="193.05" y1="524.44" x2="192.63" y2="539.61" gradientTransform="translate(0 -418.67)" gradientUnits="userSpaceOnUse"><stop offset="0" stop-color="#7b6ed6"/><stop offset="0.48" stop-color="#796dd5"/><stop offset="0.65" stop-color="#7268d0"/><stop offset="0.78" stop-color="#6760c9"/><stop offset="0.88" stop-color="#5655be"/><stop offset="0.96" stop-color="#4047b0"/><stop offset="1" stop-color="#333ea8"/></linearGradient><linearGradient id="linear-gradient-12" x1="203.22" y1="524.64" x2="202.11" y2="559.85" xlink:href="#linear-gradient-11"/><linearGradient id="linear-gradient-13" x1="212.55" y1="524.98" x2="212.13" y2="540.15" xlink:href="#linear-gradient-11"/><linearGradient id="linear-gradient-14" x1="122.8" y1="557.06" x2="224.1" y2="557.06" xlink:href="#linear-gradient-11"/><linearGradient id="linear-gradient-15" x1="166.69" y1="514.22" x2="185.02" y2="514.22" xlink:href="#linear-gradient-10"/><linearGradient id="linear-gradient-16" x1="176.46" y1="549.72" x2="224.16" y2="549.72" gradientTransform="translate(0 -418.67)" gradientUnits="userSpaceOnUse"><stop offset="0" stop-color="#3c0887"/><stop offset="0.32" stop-color="#3f0987"/><stop offset="0.53" stop-color="#470e87"/><stop offset="0.71" stop-color="#561588"/><stop offset="0.87" stop-color="#6b1f89"/><stop offset="1" stop-color="#822a8a"/></linearGradient><linearGradient id="linear-gradient-17" x1="187.75" y1="518.07" x2="211.86" y2="518.07" xlink:href="#linear-gradient-10"/><linearGradient id="linear-gradient-18" x1="229.59" y1="844.33" x2="230.51" y2="780.43" xlink:href="#linear-gradient-6"/><linearGradient id="linear-gradient-19" x1="379.8" y1="840.23" x2="379.8" y2="783.97" xlink:href="#linear-gradient-6"/><linearGradient id="linear-gradient-20" x1="102.4" y1="840.23" x2="102.4" y2="783.97" xlink:href="#linear-gradient-6"/><linearGradient id="linear-gradient-21" x1="-42.95" y1="505.93" x2="-6.29" y2="505.93" gradientTransform="matrix(0.67, -0.74, 0.74, 0.67, -84.22, -120.55)" xlink:href="#linear-gradient-11"/></defs><path class="cls-1" d="M55.9,358.3H11.7C-.1,346-3.3,326.4,3.8,310.9c6.7-14.8,21.2-24.6,30-38.3,18.7-29.2,9.7-72.8,35.1-96.4,12.7-11.8,31-15.2,48.2-16.6s35.2-1.4,51.2-8.1c19.7-8.3,34.6-26.1,54.9-32.8,22.8-7.5,50.1,1.9,63.4,21.8,8.3,12.5,11.5,28.2,21.4,39.5,16,18.3,44,19.8,63.9,33.7a59.38,59.38,0,0,1,24.6,41.8c2.1,20-5.5,42.7,6.5,58.9,5.8,7.9,15.3,12.3,21.6,19.8s8,14.3,6.1,23.9Z"/><path class="cls-2" d="M67.2,358.3H23C11.1,346,8,326.5,15,310.9c6.7-14.8,21.2-24.6,30-38.3,18.7-29.2,9.7-72.8,35.1-96.4,12.7-11.8,31-15.2,48.3-16.6s35.1-1.4,51.1-8.1c19.7-8.3,34.6-26.1,54.9-32.8,22.8-7.5,50.1,1.9,63.4,21.8,8.3,12.5,11.5,28.2,21.4,39.5,15.9,18.3,44,19.8,63.9,33.7a59.38,59.38,0,0,1,24.6,41.8c2.1,20-5.5,42.7,6.5,58.9,5.8,7.9,15.3,12.3,21.6,19.8s8,14.3,6.1,23.9Z"/><path class="cls-3" d="M168.9,207l-1.8.1H2.3c-1.6-10.9,6.9-22,17.6-24.9,9.4-2.6,20.4-.3,28.2-6,7.1-5.1,8.8-14.8,13.4-22.2a31.68,31.68,0,0,1,11.7-11c6-3.2,13.5-4.3,19.6-1.4,10.9,5.2,13,19.6,20.2,29.2a13.25,13.25,0,0,0,6.3,4.9c2.4.7,4.9.1,7.4-.3,8-1.4,17.7-1.3,22.7,5.2,2.4,3,3.2,6.9,4.5,10.5s3.4,7.3,7.1,8.6c1.7.6,3.7.6,5.2,1.6C168.2,202.5,168.8,204.7,168.9,207Z"/><path class="cls-3" d="M433.3,227.7H241.6a7.48,7.48,0,0,1-.6-7.5c1.4-3.1,4.4-5.3,7.3-7s6.1-3.4,8.3-6c4.2-5.1,4-12.3,4.9-18.8,1.1-7.8,4.4-15.4,10.2-20.6a35.69,35.69,0,0,1,7.8-5c8-3.7,18-4.7,25.5,0,7.2,4.5,10.7,13.1,17,18.8a11.53,11.53,0,0,0,5.1,3c5.6,1.3,10.4-3.8,14.6-7.7,6-5.6,14-9.7,22.1-8.7,9.5,1.2,16.9,9.4,20.5,18.3,1.5,3.7,2.7,7.8,5.7,10.5,7.7,6.8,20.7-.8,29.7,4.1,3.4,1.9,5.6,5.2,7.4,8.6A60.06,60.06,0,0,1,433.3,227.7Z"/><path class="cls-3" d="M208.5,308.8c7.3,13,12.6,28.2,12.1,49.5H98.7s9-23.7,12.6-49.1,35.7-65.8,52.1-76.1c5.6-4.2,16.8-12.3,26.4,3,13.8,20.4,4.9,72.7,4.9,72.7Z"/><path class="cls-4" d="M222.2,294.8H201.8l-13-94.9s-18.7-20.4-40.2-24.3l20.5-2.2,46.1,1.3Z"/><path class="cls-5" d="M141.7,242.6s-11.6,17-6.4,31.5l21.6-31.5-2.8-3.8Z"/><path class="cls-5" d="M201.8,294.8l-.7,4.4s-6.1.9-6.5,9.6h16l8.7-8.5.8-5.5Z"/><path class="cls-6" d="M177.2,199.9l-25.6-1,4.2,39.1-17.3,6.2-10-48.3a15,15,0,0,1,9.7-18.8,13.56,13.56,0,0,1,2.9-.6l7.6-.8h0c21.5,3.8,40.2,24.3,40.2,24.3Z"/><path class="cls-7" d="M130.1,90.6v1.1l-1.4.2a6.19,6.19,0,0,0-1.1-1.7c-1.9-1.6-3.1-2.9-4.5-2.1-1,.6-.9,3.3-.8,4.6l-3.8.5L85.1,97.4v-.1c2.2-.5,3.9-4.4,3.9-9.1s-1.6-8.5-3.8-9.1l44.9,5.1v6.4Z"/><path class="cls-8" d="M87.6,81.6a.76.76,0,0,0-.2.4,23.94,23.94,0,0,1-1.3,2.8,4.2,4.2,0,0,1-1.8,1.4,10,10,0,0,1-2.4.4,9.36,9.36,0,0,0-1.6.4c.2-4.5,2-7.9,4.2-8l.7.1A4.52,4.52,0,0,1,87.6,81.6Z"/><path class="cls-9" d="M89,87.5h0c-.5.8-.8,1.7-1.3,2.5a4.43,4.43,0,0,1-2.6,1.8,13.52,13.52,0,0,0-2.9.5,3.46,3.46,0,0,0-1.1,1,17,17,0,0,1-.7-5.1V87.1a7.49,7.49,0,0,1,1.6-.4,20,20,0,0,0,2.4-.4,4.89,4.89,0,0,0,1.8-1.4c.4-.9.8-1.9,1.2-2.9a.76.76,0,0,0,.2-.4A15.44,15.44,0,0,1,89,87.5Z"/><path class="cls-10" d="M89,88.3c0,4.7-1.7,8.6-3.9,9.1-.2,0-.3.1-.5.1-1.5,0-2.9-1.6-3.6-4.1a2.66,2.66,0,0,1,1.1-1,9.29,9.29,0,0,1,2.9-.5,4,4,0,0,0,2.6-1.8c.5-.8.8-1.7,1.3-2.4v-.1A1.48,1.48,0,0,1,89,88.3Z"/><path class="cls-5" d="M156.6,86h13.5a11.67,11.67,0,0,0-3.1,1.7c-.4.4-.2,1.1.3,2H156.7V86Z"/><path class="cls-5" d="M186.5,88.3v1.5h-7.3a24.64,24.64,0,0,1-1.4-3.8h8.7Z"/><polygon class="cls-11" points="156.6 89.8 156.6 90.6 130.1 90.6 130.1 85.1 156.6 85.1 156.6 86 156.6 89.8"/><path class="cls-12" d="M131.2,100l-5.8,4.4s-7.1-7.4-6.8-11.2l3.8-.5c-.1-1.3-.2-4,.8-4.6,1.3-.8,2.6.5,4.5,2.1a4.52,4.52,0,0,1,1.1,1.7A54.11,54.11,0,0,1,131.2,100Z"/><path class="cls-13" d="M92,79.2c-.4-.9-1.6-.1-1.3.7a17.12,17.12,0,0,1-.8,16,.78.78,0,0,0,.3,1,.65.65,0,0,0,.9-.2A18.73,18.73,0,0,0,92,79.2Z"/><polygon class="cls-14" points="195.7 105.8 195.7 110.3 190.3 105.2 195.7 105.8"/><path class="cls-15" d="M195.7,110.3l5.4,5.1,5.2,4.9s11.8-8.3,16.4-8.4a2.77,2.77,0,0,1,.9.1c4,.6,6.5,5.3,5.8,9.8-.8,4.8-.6,10.2-5.3,11.1s-25.2,5.9-25.2,5.9l-22.5-30.5,2.6-1.9,5.9-4.1,1.2-.8,2.6,2.4,1.5,1.4Z"/><path class="cls-16" d="M210.2,106.7l13.4,5.2a2.77,2.77,0,0,0-.9-.1c-4.6.1-16.4,8.4-16.4,8.4l-5.2-4.9Z"/><path class="cls-17" d="M224.1,132.8,216.3,154l-1,20.7s-.9.2-2.5.4c-7.4,1.1-29.7,3.6-43.6-1.6l5.4-25.7-2.5-20.2-30.3,3.3-19-24.5,2.5-1.9,5.8-4.4,18,17.5,28.1-12.3a11.78,11.78,0,0,0,1.9,1.1l-2.6,1.8L199,138.7C198.9,138.6,219.5,133.7,224.1,132.8Z"/><path class="cls-18" d="M185,102.2l-5.9,4.1a11.78,11.78,0,0,1-1.9-1.1,6.87,6.87,0,0,1-3.1-4.7c-.3-3-5.3-7.8-6.9-10.7-.5-.9-.7-1.6-.3-2a13.45,13.45,0,0,1,3.1-1.7c3.1-1.2,7.3-2.1,7.7-.2v.2c.4,1.3.9,2.5,1.4,3.8C181.3,94.8,185,102.2,185,102.2Z"/><path class="cls-19" d="M216.3,154c-34.4-7.3-39.9-45.9-39.9-45.9l22.5,30.5,25.2-5.9Z"/><path class="cls-20" d="M210,88a1.31,1.31,0,0,1,1.8,1.1c.7,2.6-2.3,5.8-2.3,5.8l.7,11.8-9.1,8.7,3.6-10.2-9,.6-5.4-.6-1.5-1.4s-1-9.8-1-15.5a17.2,17.2,0,0,1,.2-3.2v-.3c6.3,1.1,15-1.4,15-1.4s1.2,11.9,2.9,12.1,2.2-6.5,2.2-6.5A5.73,5.73,0,0,1,210,88Z"/><path class="cls-5" d="M210,79.3V88a5.24,5.24,0,0,0-1.9,1.1s-.5,6.7-2.2,6.5S203,83.5,203,83.5s-8.7,2.5-15,1.4h0a9.14,9.14,0,0,1-4.9-2.2c-4.8-5.1-3.1-7.9,3.8-6.4S208.1,69.5,210,79.3Z"/><polygon class="cls-21" points="204.6 105.2 201.1 115.4 195.7 110.3 195.7 105.8 204.6 105.2"/><path class="cls-5" d="M187.4,86.4a5.37,5.37,0,0,1,4.3-.3c.9.3.2,1.6-.7,1.3a3.44,3.44,0,0,0-2.8.2C187.3,88.1,186.5,86.8,187.4,86.4Z"/><ellipse class="cls-5" cx="200.69" cy="89.9" rx="1.1" ry="1.6" transform="translate(-4.42 10.59) rotate(-2.99)"/><path class="cls-5" d="M202.6,86.1a5.38,5.38,0,0,0-4.3.2c-.9.4,0,1.6.8,1.2a3.42,3.42,0,0,1,2.8-.1C202.8,87.7,203.5,86.4,202.6,86.1Z"/><path class="cls-21" d="M192.4,94.7a37.09,37.09,0,0,1,2.4-6.6.34.34,0,0,1,.6.3l-1.5,4a5.78,5.78,0,0,0-.6,1.7c-.2,1.7.6,1.6,1.5,1.9.4.2.1.9-.3.7C193.5,96.3,192.1,96.3,192.4,94.7Z"/><path class="cls-5" d="M191.6,90.1a5.13,5.13,0,0,0-2.4-1c-.5-.1-.8.8-.2.8a4.23,4.23,0,0,1,1.2.4l-1.4.4c-.5.2-.3,1,.2.8l2.3-.7C191.7,90.7,191.9,90.3,191.6,90.1Z"/><ellipse class="cls-22" cx="195.1" cy="101.3" rx="1.9" ry="2.8"/><path class="cls-23" d="M405.8,358.3H61.3s-18.5,12.3,9,14.4,70.5,4.1,69.5,13.4-26,7.5-26,24.1S228.6,423,228.6,423s64.8.9,74.1-10.1-26.1-21-19.7-25.3,53,8.6,60-1.9-1.3-17.1,11.5-18.5S403.7,370.8,405.8,358.3Z"/><ellipse class="cls-24" cx="379.8" cy="380.1" rx="26" ry="7.4"/><ellipse class="cls-25" cx="102.4" cy="386.5" rx="22.8" ry="5.6"/><ellipse class="cls-3" cx="232.9" cy="408.5" rx="25.9" ry="5"/><polygon class="cls-26" points="247.9 207.7 247.9 208.6 245.8 302.3 244.5 358.3 241.1 358.3 244.5 206.9 247.9 207.7"/><path class="cls-27" d="M308.8,247.7c.5,3.9-.2,7.9-1,11.8l-.5-.1c-.4-2.2-.9-4.6-2.8-5.7a6.44,6.44,0,0,0-4.3-.6c-2.5.3-4.9.9-7.4,1.1a11.45,11.45,0,0,1-7.2-1.6c-2.7-1.9-3.8-5.3-5.7-8a6.65,6.65,0,0,0-3-2.5c-2.8-1-5.6,1.2-8.3,2.5a8.72,8.72,0,0,1-7.7.4c-3.4-1.8-4.5-6.3-7.6-8.6a7.66,7.66,0,0,0-7.6-.7l2.1-28.4c5-.6,10.4-.1,14.2,3.2,2.4,2.1,3.7,5.1,5.4,7.8a7.47,7.47,0,0,0,2.5,2.8c1.6,1,3.7.9,5.7.7,4-.3,8.5-.2,11.4,2.5,3.3,3.1,3.7,8.6,7.5,11.1,2.4,1.6,5.5,1.5,8.2,2.7C306.1,239.9,308.3,243.8,308.8,247.7Z"/><text class="cls-28" transform="translate(61.87 30.01)">P</text><text class="cls-29" transform="translate(78.58 30.01)">A</text><text class="cls-29" transform="translate(101.14 30.01)">GE N</text><text class="cls-28" transform="translate(186.56 30.01)">O</text><text class="cls-29" transform="translate(215.63 30.01)">T FOUND!</text></svg>