<svg id="Слой_1" data-name="Слой 1" xmlns="http://www.w3.org/2000/svg" viewBox="0 0 2300 2000"><defs><style>.cls-1{fill:#ebf3fa;}.cls-2{fill:#ffb27d;}.cls-3{fill:#f99746;}.cls-4{fill:#efa26f;}.cls-5{fill:#ffc197;}.cls-6{fill:#2b478b;}.cls-7{fill:#c0d8fb;}.cls-8{fill:#cbe1fd;}.cls-9{fill:#ffd3b6;}.cls-10{fill:#ed7d2b;}.cls-11{fill:#dceaff;}.cls-12{fill:#699dee;}.cls-13{fill:#9abff6;}.cls-14{fill:#dfebfd;}.cls-15{fill:#9ec3f6;}.cls-16{fill:#fff;}.cls-17{fill:#d2e3fc;}</style></defs><rect class="cls-1" width="2300" height="2000"/><path class="cls-2" d="M1344.51,991.91s-95.74,191.54-193,323.75c-38.7,52.63-77.63,95.84-110.87,113.87-32.53,17.64-60.07,45-82.86,75.41-59,78.63-86.25,177.07-86.25,177.07l-248.7-376.25s8.49-367.78,38.35-429.3c43.52-89.66,64.54-270.8,81.26-306.86,12.41-26.75,47.83-164.94,51.22-175.1,1.48-4.37,13.26-11.08,28.57-11.07,12.28,0,33.14,11.87,38.39,36.27,26.6,123.3-5.41,204.64-5,208.25,9.38,94.77-18.82,165.12,1,183.75.73.68,2.1.36,4-.88,34.29-22,247.08-332.24,273.29-338.94C1161.53,464.82,1344.51,991.91,1344.51,991.91Z"/><path class="cls-3" d="M946.35,1607.55s-3.39,167.19-13.09,392.38H306C449.34,1694.15,574,1436.79,574,1436.79S931.19,1447.7,946.35,1607.55Z"/><path class="cls-2" d="M1562,343.67l-77,112.9-75.57,110.8c-4.61,5.56-9.94,7.49-15.71,6.94-18.14-1.72-40.57-27.88-58.06-42.36l-1.77-1.46a54.55,54.55,0,0,1-7.25-76.59l115.51-139.63h0l34.26-41.41a54.56,54.56,0,0,1,76.59-7.24l1.78,1.46A54.57,54.57,0,0,1,1562,343.67Z"/><path class="cls-4" d="M1484.93,456.57l-75.57,110.8c-4.61,5.56-9.94,7.49-15.71,6.94l48.43-260C1442.19,315.73,1450.42,432.4,1484.93,456.57Z"/><path class="cls-4" d="M1151.51,1315.66c-38.7,52.63-77.63,95.84-110.87,113.87-32.53,17.64-60.07,45-82.86,75.41-26.21-12.22-56.09-26.55-85.29-40.75-35.56-17.28-36.93-67.78-2.09-86.49.34-.18.67-.37,1-.56,32.64-18.67,66.08-84.62,66.08-84.62Z"/><path class="cls-5" d="M791.93,400.22l-20.15,81.36s17.62,7.2,28.93,1.61S821.25,404.6,791.93,400.22Z"/><rect class="cls-6" x="860.63" y="246.7" width="588.29" height="1107.41" rx="77.49"/><path class="cls-7" d="M1419.76,331.52v930.35c0,31.56-25.64,57.38-57,57.38H946.74c-31.32,0-57-25.82-57-57.38V331.52c0-31.56,25.63-57.38,57-57.38H1362.8C1394.12,274.14,1419.76,300,1419.76,331.52Z"/><path class="cls-8" d="M1362.8,274.14,951.89,1319.25h-5.15c-31.32,0-57-25.82-57-57.38V331.52c0-31.56,25.63-57.38,57-57.38Z"/><rect class="cls-6" x="1042.08" y="253.19" width="225.4" height="55.56" rx="25.75"/><path class="cls-2" d="M1523.61,770l-11.48,4.36-77.23,29.35a49,49,0,0,1-5.48,1.74,52.76,52.76,0,0,1-62.37-32.22l-1.13-3a52.76,52.76,0,0,1,30.48-67.86l72-27.35,5.23-2,11.49-4.37A52.74,52.74,0,0,1,1553,699.21l1.14,3A52.76,52.76,0,0,1,1523.61,770Z"/><path class="cls-9" d="M1460.89,771.8c-12.88,4.89-36.22,13.55-48.7,15.35-3.53.5-10-1.42-16.11-8.06-3.64-4-7.12-9.66-9.71-17.52a56.55,56.55,0,0,1-2.64-11.18,47,47,0,0,1,.43-13.3,13.26,13.26,0,0,1,7.36-9.49s0,0,.06,0c13.27-6.33,31.16-14.06,46.84-18.36,10.84-3,21.81,1.79,25.24,11.28l1.62,4.43,8.29,22.7C1477,757.05,1471.42,767.83,1460.89,771.8Z"/><path class="cls-5" d="M1460.89,771.8c-12.88,4.89-36.22,13.55-48.7,15.35-3.53.5-10-1.42-16.11-8.06-.64-1.52-1.24-3.11-1.8-4.82a55,55,0,0,1-2.64-11.18,47.43,47.43,0,0,1,.42-13.3,13.29,13.29,0,0,1,7.37-9.48s0,0,.06,0c13.27-6.34,31.15-14.06,46.84-18.37a22.17,22.17,0,0,1,19,3l8.29,22.7C1477,757.05,1471.42,767.83,1460.89,771.8Z"/><path class="cls-2" d="M1488.57,878.61,1429,894.82a34.2,34.2,0,0,1-41.86-23.94l-1.84-6.74a34.22,34.22,0,0,1,24-41.87l59.56-16.21a34.2,34.2,0,0,1,41.86,24l1.83,6.74A34.2,34.2,0,0,1,1488.57,878.61Z"/><path class="cls-9" d="M1456.36,875.69c-10.94,2.92-30.71,8.07-41.08,8.64-3.77.21-11.32-3-16.24-12.89a45.1,45.1,0,0,1-4.38-17.16,34.14,34.14,0,0,1,1.33-10.19,10.56,10.56,0,0,1,6.73-6.8l.06,0c11.35-4,26.59-8.79,39.78-11.1,9.1-1.59,17.74,2.79,19.87,10.3l1.54,5.36,4.59,16.11C1470.68,865.38,1465.3,873.31,1456.36,875.69Z"/><path class="cls-5" d="M1456.36,875.69c-10.94,2.92-30.71,8.07-41.08,8.64-3.77.21-11.32-3-16.24-12.89a37.88,37.88,0,0,1-1.21-8.22,34.19,34.19,0,0,1,1.33-10.19,10.59,10.59,0,0,1,6.74-6.81l0,0c11.35-4,26.6-8.8,39.78-11.09,7.54-1.32,14.77,1.46,18.24,6.71l4.59,16.11C1470.68,865.38,1465.3,873.31,1456.36,875.69Z"/><path class="cls-10" d="M512.94,1563.64s122.58,117.41,205.22,162.74L780.73,1682v65.47s123,21.76,161.86,0V1568.94L597,1395.68Z"/><path class="cls-11" d="M968.7,1733.26c-47.61,9.77-150.22-27.63-150.22-27.63L835,1545.77l-116,132.79c-59-22-151.3-79.26-206.13-114.92-27.3-17.76-45.32-30.15-45.32-30.15,77.38-124.52,155.21-241,155.21-241,22.85,45.71,76.92,85.39,135.54,117.14,97.41,52.76,207.36,83.58,207.36,83.58C965.69,1588.24,968.7,1733.26,968.7,1733.26Z"/><path class="cls-2" d="M1521.73,655.89l-1.28.44-78.08,20c-34.33,8.83-69.84-9.75-78.9-41.27L1358.83,619c-8.71-30.27,10-61.92,41.91-72.18l25.78-6.62,52.3-13.43c34.33-8.82,69.83,9.76,78.89,41.28l4.65,16.15C1570.94,614,1552.84,645.19,1521.73,655.89Z"/><path class="cls-9" d="M1486,634.09,1448,651.19l-.24,0a41.11,41.11,0,0,1-4.59,1c-.63.1-1.28.17-1.92.24a4.28,4.28,0,0,1-.8,0,6,6,0,0,1-5.24-8.52,37.72,37.72,0,0,0,2.15-25.72l-.91-3.31a.22.22,0,0,0,0-.1L1433.51,604a40.45,40.45,0,0,0-13.75-21c-.78-.63-1.58-1.23-2.4-1.79-7.5-5.2-5.59-17,3.19-19.4l.24-.07,41.63-6.3c10.29-2.79,20.2,5.13,23,15.42l3.34,12.27,7.12,26.16C1498.68,619.65,1496.24,631.3,1486,634.09Z"/><path class="cls-5" d="M1486,634.09,1448,651.19l-.24,0c-.89.17-3.67.64-7.31,1.2a6,6,0,0,1-5.24-8.52,37.72,37.72,0,0,0,2.15-25.72l-.91-3.31a.22.22,0,0,0,0-.1L1433.51,604a40.45,40.45,0,0,0-13.75-21,10.59,10.59,0,0,1,6-4.25l.24-.07,41.63-6.29c8.67-2.36,17.05,2.89,21.17,10.74l7.12,26.16C1498.68,619.65,1496.24,631.3,1486,634.09Z"/><path class="cls-4" d="M860.62,1062s-17-148.69-32.74-177.68-29-87.07-4.84-130.21S855.57,628,855.57,628c9.38,94.77-18.82,165.12,1,183.75.73.68,2.1.36,4-.88Z"/><rect class="cls-12" x="612.34" y="508.55" width="665.93" height="311.29" rx="37.18"/><rect class="cls-13" x="982.58" y="363.01" width="293.75" height="106.12" rx="31.1"/><rect class="cls-13" x="930.88" y="1116.28" width="341.44" height="130.92" rx="37.25"/><path class="cls-3" d="M1086.64,874.09h252.19a44.63,44.63,0,0,1,44.63,44.63v98.68a44.63,44.63,0,0,1-44.62,44.63H1086.64A44.62,44.62,0,0,1,1042,1017.4V918.72A44.62,44.62,0,0,1,1086.64,874.09Z"/><path class="cls-2" d="M2051.81,2000H1591.75c-22.06-14.79-136.63-92.94-184-151.2-10-12.35-46.79-118.75-75-205.14-17.63-54-32-100.14-34.37-110.73-.84-3.69-1.4-11-1.74-20.9v-.1c-1.2-35.33.44-103.46,2.13-157.58v-.25l0-.71c.08-2.38.15-4.72.23-7v-.08c0-.23,0-.47,0-.7.31-9.4.61-18.26.89-26.32.71-20.14,1.31-35.29,1.56-41.22l.1-2.76h0c.73-.41,22.86-12.22,52.44,9.09,7.14,5.15,13.74,17.59,19.76,33.82,3.85,10.36,7.46,22.26,10.82,34.8,12.92,48.23,22.19,105.89,27.14,121.33,8,25,102,134.67,107.92,141.49.09.12.19.23.28.34V1442.86l-71-190-29.15-78-14.65-39.2a706.69,706.69,0,0,1-41.32-81.27c-8.25-19.42-15.81-40.27-20.49-60.09-1.12-4.72-2.07-9.39-2.83-14v0c-2.77-16.75-3-32.29.89-44.94,6.87-22.53,22.35-26.77,34.24-26.31,1.23,0,2.42.15,3.57.28a24.31,24.31,0,0,1,3.42.66,23.82,23.82,0,0,1,5.91,2.46s0,0,0,0a24,24,0,0,1,7.72,7.22s10,13.11,23.51,30.73c8.86,11.6,19.21,25.15,29.15,38.21,17.7,23.27,34.14,45,38.66,51.34,24.43,34.39,90.21,146.46,90.21,146.46l77,3.23a51.08,51.08,0,0,1,32.73,13.7c27.38,25.57,86.41,80.9,93.65,89.13,0,2.7,45.87,24.76,81.31,44.4,25.35,10.71,73.5,48.67,73.5,48.67,10,8.81,17.58,17.58,21.43,26,16.51,35.93,61.29,348.42,82.7,502.9C2047,1964.1,2051.46,1997.43,2051.81,2000Z"/><path class="cls-4" d="M1577.78,1186.45s71.33,116.44,80.77,121.68,46.16,12.59,50.36,0S1577.78,1186.45,1577.78,1186.45Z"/><path class="cls-4" d="M1936.33,1385.9l-.36-.32s-48.15-38-73.5-48.67c-32.54-18-73.86-38.1-80.41-43.36,7.55,8.64,60.67,68.76,81.12,73.26C1881.13,1370.77,1921.9,1381.92,1936.33,1385.9Z"/><path class="cls-4" d="M1519.92,1616.13V1442.86s41.16,68.85,44.31,106.62S1547.13,1648.37,1519.92,1616.13Z"/><path class="cls-9" d="M1370.57,980.29c-6-10.32-16.8-29-20.51-39.5-1-3-.91-8.88,2.73-15.19a34.16,34.16,0,0,1,10.8-11.21,35.51,35.51,0,0,1,7.58-4.09,29.64,29.64,0,0,1,9.7-1.79,10.32,10.32,0,0,1,8.29,4.82s0,0,0,0c7.14,10.41,16.18,24.58,22.33,37.41,4.25,8.86,2.91,19.09-3.29,23.58l-2.9,2.12-14.82,10.82C1384.35,991.79,1375.47,988.73,1370.57,980.29Z"/><path class="cls-5" d="M1370.57,980.29c-6-10.32-16.8-29-20.51-39.5-1-3-.91-8.88,2.73-15.19a42.6,42.6,0,0,1,10.71-6.43,29.68,29.68,0,0,1,9.7-1.79,10.31,10.31,0,0,1,8.29,4.82l0,0c7.15,10.41,16.19,24.58,22.33,37.4,2.73,5.68,3.16,11.91,1.48,16.83l-14.82,10.82C1384.35,991.79,1375.47,988.73,1370.57,980.29Z"/><rect class="cls-14" x="1629.76" y="364.48" width="188.7" height="171.7" rx="46.13"/><path class="cls-3" d="M1674,448.92c5.24,13.81,50.17,50.09,50.17,50.09s14.65-11.9,28.21-24.72c10.15-9.48,19.64-19.47,21.89-25.37,5.32-13.73-.34-33.37-20-36.7s-30.13,17.14-30.13,17.14-10.56-20.47-30.2-17.14a26.87,26.87,0,0,0-9,3.16C1672.71,422.21,1669.63,437.6,1674,448.92Z"/><path class="cls-14" d="M221.45,983.34H510.36a42,42,0,0,1,41.88,41.87V1152a38.57,38.57,0,0,1-38.46,38.46h-7.43l13.92,58.8-87.39-58.8H219a42,42,0,0,1-41.84-41.83V1027.67A44.46,44.46,0,0,1,221.45,983.34Z"/><path class="cls-8" d="M213.7,1075.34H515a7.49,7.49,0,0,0,7.46-7.46h0a7.49,7.49,0,0,0-7.46-7.46H213.7a7.48,7.48,0,0,0-7.46,7.46h0A7.48,7.48,0,0,0,213.7,1075.34Z"/><path class="cls-8" d="M213.7,1108.73H515a7.48,7.48,0,0,0,7.46-7.46h0a7.49,7.49,0,0,0-7.46-7.46H213.7a7.48,7.48,0,0,0-7.46,7.46h0A7.47,7.47,0,0,0,213.7,1108.73Z"/><path class="cls-8" d="M213.7,1142.13H515a7.49,7.49,0,0,0,7.46-7.46h0a7.48,7.48,0,0,0-7.46-7.46H213.7a7.47,7.47,0,0,0-7.46,7.46h0A7.48,7.48,0,0,0,213.7,1142.13Z"/><path class="cls-8" d="M377.82,1023.47H505.71a8.9,8.9,0,0,0,8.88-8.88h0a8.91,8.91,0,0,0-8.88-8.88H377.82a8.91,8.91,0,0,0-8.88,8.88h0A8.9,8.9,0,0,0,377.82,1023.47Z"/><rect class="cls-8" x="260.89" y="1005.71" width="90.99" height="17.76" rx="7.02" transform="translate(612.78 2029.19) rotate(180)"/><polygon class="cls-15" points="1673.14 1047.62 1854.86 1107.03 1746.01 1000.94 1734.96 1026.86 1688.18 1027.09 1673.14 1047.62"/><polygon class="cls-16" points="1854.86 1107.03 1713.83 999.75 1563.15 965.33 1854.86 1107.03"/><polygon class="cls-16" points="1746.01 1000.94 1854.86 1107.03 1782.31 958.4 1746.01 1000.94"/><polygon class="cls-15" points="601.6 370.65 431.75 394.88 544.46 318.06 550.2 342.69 591.5 350.17 601.6 370.65"/><polygon class="cls-16" points="431.75 394.88 573.09 322.01 711.63 315.04 431.75 394.88"/><polygon class="cls-16" points="544.46 318.06 431.75 394.88 519 274.81 544.46 318.06"/><path class="cls-16" d="M868.27,652.45a96,96,0,0,1-20,58.86,97.09,97.09,0,0,1-14.1,14.77,96.49,96.49,0,1,1,34.13-73.63Z"/><path class="cls-6" d="M810.55,698.06l-.75-.81c-1.11-.85-2.22-1.38-6.68-2.15-2.27-.38-5.42-.83-9.89-1.41,0,0-1-.11-1.47-.15l-1.12-.1c-1.28-.67-1.61-6-1.6-11.58,0-.42,0-.84,0-1.26,0-2.12.09-4.21.17-6.09,0-.12,0-.23,0-.35,2.76.23,4.59.21,4.59.21,5.14-.41,8.35-14.19,9.5-25.33a37.56,37.56,0,0,0,2.54-12.72,16.43,16.43,0,0,0-3.3-10.63,14.17,14.17,0,0,0-3.61-3.24c-.32-.32-.65-.61-1-.89-4.78-5.31-24.22-25.21-37-13.7-.33-1.15-4.48-14.07-24.6-9.84,1.25-.13,10.17-1,12.75,2.64-.35-.15-8.14-3.61-13-.59-2.27,1.38-3.68,4.25-4.48,7.27l0,.06s0,0,0,.05h0a.29.29,0,0,0,0,.09c-.09.41-.19.82-.28,1.23,0,.06,0,.12,0,.19s0,0,0,0v0a20.94,20.94,0,0,0-.24,7.62c.75,3.15,6.3,12.53,10,12.53a11,11,0,0,0,4.2-1,46.57,46.57,0,0,0-1.5,5.46C739.77,652,752,666,758.32,662.52c4.06-2.21,7.13,4.89,7.13,4.89l0,0c-.6,13.45-4.29,22.23-7,24.42-1,.11-3.1.37-5.75.79h0s-9.33,1-16.43,4.11l-.17.07a17,17,0,0,0-4,2.24l0,0h0a5.88,5.88,0,0,0-1.3,1.35,3.33,3.33,0,0,0-.42.61c-2.37,4.52-4.76,11.31-7,19.27A81.84,81.84,0,0,0,825,717.08C819.79,706.16,813.81,700.53,810.55,698.06Z"/><rect class="cls-16" x="927.44" y="586.73" width="123.43" height="17.12" rx="6.91"/><path class="cls-16" d="M1045.28,665.37H933a5.61,5.61,0,0,1-5.58-5.58h0a5.6,5.6,0,0,1,5.58-5.58h112.27a5.6,5.6,0,0,1,5.58,5.58h0A5.6,5.6,0,0,1,1045.28,665.37Z"/><rect class="cls-16" x="927.43" y="680.61" width="72.42" height="11.16" rx="4.27"/><rect class="cls-16" x="1017.19" y="680.61" width="113.94" height="11.16" rx="5.36"/><path class="cls-16" d="M1222.2,665.37H1075a5.6,5.6,0,0,1-5.58-5.58h0a5.6,5.6,0,0,1,5.58-5.58H1222.2a5.6,5.6,0,0,1,5.58,5.58h0A5.61,5.61,0,0,1,1222.2,665.37Z"/><path class="cls-16" d="M1045.28,718.18H933a5.6,5.6,0,0,1-5.58-5.58h0A5.6,5.6,0,0,1,933,707h112.27a5.6,5.6,0,0,1,5.58,5.58h0A5.6,5.6,0,0,1,1045.28,718.18Z"/><path class="cls-16" d="M1222.2,718.18H1075a5.6,5.6,0,0,1-5.58-5.58h0A5.6,5.6,0,0,1,1075,707H1222.2a5.6,5.6,0,0,1,5.58,5.58h0A5.6,5.6,0,0,1,1222.2,718.18Z"/><rect class="cls-16" x="1066.15" y="586.73" width="90.56" height="17.12" rx="5.92"/><rect class="cls-12" x="968.7" y="1141.3" width="87.75" height="12.17" rx="4.91"/><path class="cls-12" d="M1052.48,1184.62H972.66a4,4,0,0,1-4-4h0a4,4,0,0,1,4-4h79.82a4,4,0,0,1,4,4h0A4,4,0,0,1,1052.48,1184.62Z"/><rect class="cls-12" x="968.7" y="1195.47" width="51.49" height="7.93" rx="3.04"/><rect class="cls-12" x="1032.51" y="1195.47" width="81" height="7.93" rx="3.81"/><path class="cls-12" d="M1178.26,1184.62H1073.6a4,4,0,0,1-4-4h0a4,4,0,0,1,4-4h104.66a4,4,0,0,1,4,4h0A4,4,0,0,1,1178.26,1184.62Z"/><path class="cls-12" d="M1052.48,1222.17H972.66a4,4,0,0,1-4-4h0a4,4,0,0,1,4-4h79.82a4,4,0,0,1,4,4h0A4,4,0,0,1,1052.48,1222.17Z"/><path class="cls-12" d="M1178.26,1222.17H1073.6a4,4,0,0,1-4-4h0a4,4,0,0,1,4-4h104.66a4,4,0,0,1,4,4h0A4,4,0,0,1,1178.26,1222.17Z"/><rect class="cls-12" x="1067.32" y="1141.3" width="64.38" height="12.17" rx="4.21"/><rect class="cls-12" x="1020.39" y="383.48" width="87.75" height="12.17" rx="4.91"/><path class="cls-12" d="M1104.18,426.8h-79.82a4,4,0,0,1-4-4h0a4,4,0,0,1,4-4h79.82a4,4,0,0,1,4,4h0A4,4,0,0,1,1104.18,426.8Z"/><rect class="cls-12" x="1020.39" y="437.64" width="51.49" height="7.93" rx="3.04"/><rect class="cls-12" x="1084.2" y="437.64" width="81" height="7.93" rx="3.81"/><path class="cls-12" d="M1230,426.8H1125.3a4,4,0,0,1-4-4h0a4,4,0,0,1,4-4H1230a4,4,0,0,1,4,4h0A4,4,0,0,1,1230,426.8Z"/><rect class="cls-12" x="1119.02" y="383.48" width="64.38" height="12.17" rx="4.21"/><rect class="cls-10" x="1081.42" y="908.54" width="96.07" height="13.32" rx="5.38"/><path class="cls-10" d="M1173.15,956h-87.39a4.36,4.36,0,0,1-4.34-4.35h0a4.36,4.36,0,0,1,4.34-4.34h87.39a4.36,4.36,0,0,1,4.34,4.34h0A4.36,4.36,0,0,1,1173.15,956Z"/><rect class="cls-10" x="1081.42" y="967.84" width="56.37" height="8.69" rx="3.33"/><rect class="cls-10" x="1151.28" y="967.84" width="88.68" height="8.68" rx="4.17"/><path class="cls-10" d="M1310.85,956H1196.27a4.36,4.36,0,0,1-4.34-4.35h0a4.36,4.36,0,0,1,4.34-4.34h114.58a4.36,4.36,0,0,1,4.34,4.34h0A4.36,4.36,0,0,1,1310.85,956Z"/><path class="cls-10" d="M1173.15,997.07h-87.39a4.35,4.35,0,0,1-4.34-4.34h0a4.35,4.35,0,0,1,4.34-4.34h87.39a4.35,4.35,0,0,1,4.34,4.34h0A4.35,4.35,0,0,1,1173.15,997.07Z"/><path class="cls-10" d="M1310.85,997.07H1196.27a4.35,4.35,0,0,1-4.34-4.34h0a4.35,4.35,0,0,1,4.34-4.34h114.58a4.35,4.35,0,0,1,4.34,4.34h0A4.35,4.35,0,0,1,1310.85,997.07Z"/><path class="cls-10" d="M1173.15,1018.47h-87.39a4.35,4.35,0,0,1-4.34-4.34h0a4.35,4.35,0,0,1,4.34-4.34h87.39a4.35,4.35,0,0,1,4.34,4.34h0A4.35,4.35,0,0,1,1173.15,1018.47Z"/><path class="cls-10" d="M1310.85,1018.47H1196.27a4.35,4.35,0,0,1-4.34-4.34h0a4.35,4.35,0,0,1,4.34-4.34h114.58a4.35,4.35,0,0,1,4.34,4.34h0A4.35,4.35,0,0,1,1310.85,1018.47Z"/><rect class="cls-10" x="1189.39" y="908.54" width="70.49" height="13.32" rx="4.61"/><path class="cls-16" d="M970,332.34l-5.93,4.26-6-4.21a7.3,7.3,0,0,1,11.89-.05Z"/><path class="cls-16" d="M964.09,318.93a17.61,17.61,0,0,0-14.42,7.5l3.76,2.64a13,13,0,0,1,21.26-.08l3.75-2.69A17.64,17.64,0,0,0,964.09,318.93Z"/><path class="cls-16" d="M964.09,299.22a37.28,37.28,0,0,0-30.52,15.86l3.77,2.64a32.71,32.71,0,0,1,53.37-.2l3.73-2.69A37.26,37.26,0,0,0,964.09,299.22Z"/><path class="cls-16" d="M964.09,310a26.67,26.67,0,0,0-21.76,11.24l3.76,2.64a22.12,22.12,0,0,1,35.91-.14l3.73-2.67A26.65,26.65,0,0,0,964.09,310Z"/><path class="cls-16" d="M930.8,960.38a37.89,37.89,0,0,0,59.62,31.06c.31-.21.61-.44.92-.66a37.9,37.9,0,1,0-60.54-30.4Z"/><path class="cls-12" d="M979,984.69l-3.49-3.09-.87.16a23.62,23.62,0,0,0-2-1.27c.23-1.41.42-2.72.58-3.88a62.44,62.44,0,0,0,.59-6.89c1.85-.09,3.1-.29,3.1-.29,3.5-.81,3.67-12.76,2.86-19a4.48,4.48,0,0,0,1.95-.37c2.65-1.17,2.8-5.18,2.8-5.18a4.69,4.69,0,0,1-1.9,1.89s4.43-6.07-.71-10.22-10.35-1.44-13.33-1.26c-6.54.4-10.77.79-12.9,5.09s-1.28,15.9,2.76,20.19c.07.4.14.79.19,1.19a8,8,0,0,0,1.6,3.81,26.73,26.73,0,0,1-4.84,11.26,17.52,17.52,0,0,0-3.48,3.75l-.07,0h0a37.94,37.94,0,0,0-4.89,10.73s0,0,0,.06a35.93,35.93,0,0,0,6.91,3.8l.48.2.11,0,.79.31c.64.25,1.28.48,1.93.69s1.37.42,2.06.6l1,.23c.28.07.56.13.85.18l.12,0,.57.11,1.34.23.31,0,.74.1,1.05.12c.39,0,.79.07,1.19.09s.75,0,1.13.06l1.19,0,1.28,0h.42l.63,0H971c.4,0,.79-.05,1.19-.09a37.65,37.65,0,0,0,14.28-4.32A39.8,39.8,0,0,0,979,984.69Z"/><path class="cls-16" d="M1302.88,1180.66A38.16,38.16,0,1,0,1341,1142.5,37.95,37.95,0,0,0,1302.88,1180.66Z"/><path class="cls-3" d="M1360.54,1202.28a1.32,1.32,0,0,0-.19-.29,3,3,0,0,0-.61-.63h0a7.67,7.67,0,0,0-1.88-1l-.08,0a30.73,30.73,0,0,0-7.66-1.92c-1.24-.19-2.22-.31-2.68-.36-1.28-1-3-5.12-3.28-11.39v0s1.43-3.32,3.32-2.28c3,1.61,8.65-4.91,6.83-13.48a23.67,23.67,0,0,0-.7-2.54,5.28,5.28,0,0,0,2,.48c1.71,0,4.3-4.38,4.65-5.85s0-6.3-2.38-7.73-5.92.21-6.08.27c1.17-1.64,5.17-1.31,5.9-1.23-9.34-1.94-11.27,4-11.43,4.59-5.94-5.37-15,3.91-17.24,6.39q-.23.19-.45.42a6.44,6.44,0,0,0-1.68,1.5,7.66,7.66,0,0,0-1.54,5,17.58,17.58,0,0,0,1.18,5.93c.54,5.19,2,11.62,4.44,11.81,0,0,.85,0,2.13-.1,0,.06,0,.11,0,.17,0,.87.07,1.85.08,2.83v.59c0,2.61-.15,5.09-.74,5.4l-.52,0c-.24,0-.69.07-.69.07-2.08.27-3.56.48-4.61.66-2.08.35-2.6.6-3.11,1a4.43,4.43,0,0,0-.36.38,23.78,23.78,0,0,0-6.75,8.86,38.16,38.16,0,0,0,47.45,1.49A51,51,0,0,0,1360.54,1202.28Z"/><path class="cls-16" d="M1302.88,413.79a38,38,0,0,0,7.92,23.28,38.54,38.54,0,0,0,5.58,5.84,38.15,38.15,0,1,0-13.5-29.12Z"/><path class="cls-3" d="M1360.54,435.41a1.6,1.6,0,0,0-.19-.29,3,3,0,0,0-.61-.63h0a8.39,8.39,0,0,0-1.88-1.05l-.08,0a31.24,31.24,0,0,0-7.66-1.92h0c-1.24-.2-2.22-.32-2.68-.37a4.29,4.29,0,0,1-1-1.25h0c-1.06-1.86-2.1-5.36-2.31-10.13v0s1.43-3.31,3.32-2.28c3,1.61,8.65-4.9,6.83-13.47a23.24,23.24,0,0,0-.7-2.55,5.28,5.28,0,0,0,2,.48c1.71,0,4.3-4.38,4.65-5.84s0-6.31-2.38-7.74-5.92.21-6.08.28c1.17-1.64,5.18-1.31,5.9-1.24-9.34-1.94-11.27,4.06-11.43,4.59-5.94-5.36-15,3.92-17.24,6.39q-.23.19-.45.42a6.51,6.51,0,0,0-1.68,1.51,7.62,7.62,0,0,0-1.54,4.95,17.5,17.5,0,0,0,1.18,5.93c.54,5.2,2,11.62,4.44,11.81,0,0,.85,0,2.13-.09,0,.05,0,.1,0,.16,0,.87.07,1.85.08,2.84v.59c0,2.61-.15,5.08-.74,5.4l-.52,0-.69.07c-2.08.27-3.56.48-4.61.66-2.08.36-2.6.6-3.11,1l-.36.38a23.84,23.84,0,0,0-6.75,8.87q.54.46,1.11.9l.19.15c.28.22.56.43.85.63s.4.31.61.45.42.29.63.42.61.42.93.61l.64.4.8.47.9.5.08,0,.05,0h0l.13.07.72.37,0,0,.22.11.41.2.4.19.93.41.94.38.43.17.43.16.88.31.92.3.78.24.08,0,.5.14c.91.25,1.84.47,2.78.65.41.08.82.16,1.23.22l.32,0h.11l.8.1.17,0,.12,0c.25,0,.5.06.74.08h.13l.23,0c.45,0,.89.07,1.34.09h.07l.42,0h.26l1.32,0a37.94,37.94,0,0,0,22.79-7.56A51.26,51.26,0,0,0,1360.54,435.41Z"/><path class="cls-4" d="M1820.67,1928.85,1683.24,2000h-91.49c-22.06-14.79-136.63-92.94-184-151.2-10-12.35-46.79-118.75-75-205.14v0c3.75,11.47,82.56,179.32,105,198.4s140.26,130.16,172.8,129c31.52-1.08,199.32-39.7,209.72-42.09Z"/><path class="cls-17" d="M2097.19,2000H1601.73c24.85-9.75,119.92-46.07,218.47-71l.47-.11c84.64-21.41,171.77-34.39,219.09-14.92l.34.51Z"/><path class="cls-4" d="M1299,1345.57l0,0c8.34-3.06,20.07-5.08,25.77,4.45,8.88,14.82-24.1,145.58-28.22,162Z"/><path class="cls-5" d="M1301.54,1275.26l-2.83,79.09s16.63,2.71,26.08-4.35S1329.24,1274.33,1301.54,1275.26Z"/><path class="cls-8" d="M968.7,1733.26c-47.61,9.77-150.22-27.63-150.22-27.63L835,1545.77l-116,132.79c-59-22-151.3-79.26-206.13-114.92,140.52-15.32,245.43-154,245.43-154,97.41,52.76,207.36,83.58,207.36,83.58C965.69,1588.24,968.7,1733.26,968.7,1733.26Z"/><path class="cls-3" d="M642,1588.06a19.3,19.3,0,1,1,19.12,19.48A19.3,19.3,0,0,1,642,1588.06Z"/></svg>