<svg xmlns="http://www.w3.org/2000/svg" viewBox="0 0 696.81 722.05"><defs><style>.cls-1{fill:none;}.cls-2,.cls-3{fill:#e0e0e0;}.cls-22,.cls-23,.cls-3,.cls-4,.cls-5{fill-rule:evenodd;}.cls-4,.cls-6{fill:#ebebeb;}.cls-5,.cls-7{fill:#f5f5f5;}.cls-8{fill:#fafafa;}.cls-10,.cls-9{fill:#263238;}.cls-10{font-size:34.41px;font-family:Roboto-Black, Roboto;font-weight:800;}.cls-11{letter-spacing:-0.02em;}.cls-12{letter-spacing:-0.02em;}.cls-13{letter-spacing:-0.01em;}.cls-14{letter-spacing:-0.01em;}.cls-15{letter-spacing:-0.01em;}.cls-16,.cls-23{fill:#455a64;}.cls-17,.cls-22{fill:#e8505b;}.cls-18{fill:#fff;}.cls-19{opacity:0.3;}.cls-20{opacity:0.8;}.cls-21{opacity:0.6;}</style></defs><g id="Background_Complete" data-name="Background Complete"><path class="cls-1" d="M1161.93,526.88a35.35,35.35,0,0,1,3.48-8.79l-4.8-7.34,10.09-10.42,7.49,4.55a35.68,35.68,0,0,1,8.67-3.76l1.8-8.58,14.5-.23,2.08,8.51a35.35,35.35,0,0,1,8.79,3.48l7.34-4.8,10.42,10.09-4.56,7.49a35.7,35.7,0,0,1,3.77,8.67l8.57,1.8.24,14.5-8.51,2.08a36.14,36.14,0,0,1-3.48,8.79l4.79,7.34-10.08,10.42-7.49-4.56a35.77,35.77,0,0,1-8.68,3.77l-1.79,8.57-14.51.24-2.07-8.51a35.35,35.35,0,0,1-8.79-3.48l-7.34,4.79-10.42-10.08,4.55-7.49a35.58,35.58,0,0,1-3.76-8.68l-8.58-1.79-.23-14.5,8.51-2.08Zm19.12,8.22a15.56,15.56,0,1,0,15.3-15.81A15.55,15.55,0,0,0,1181.05,535.1Z" transform="translate(-611.6 -184.18)"/><path class="cls-2" d="M1181.05,535.1a11.87,11.87,0,0,1,.26-3.85,15.5,15.5,0,0,1,5.49-8.85,15.71,15.71,0,0,1,6.61-3.14,15.91,15.91,0,0,1,8.38.52,16,16,0,0,1,7.52,5.41,15.88,15.88,0,0,1,.31,18.89,14.68,14.68,0,0,1-3.33,3.43,14.83,14.83,0,0,1-4,2.23,15.81,15.81,0,0,1-15.07-2.13,15.58,15.58,0,0,1-5.78-8.68,11.68,11.68,0,0,1-.38-3.83,35.58,35.58,0,0,0,.7,3.74,15.57,15.57,0,0,0,5.82,8.28A15.23,15.23,0,0,0,1202,549a15.07,15.07,0,0,0,6.94-5.41,15.1,15.1,0,0,0-.29-17.89,15.2,15.2,0,0,0-7.12-5.18,15.2,15.2,0,0,0-14.35,2.35,15.53,15.53,0,0,0-5.55,8.46A33.33,33.33,0,0,0,1181.05,535.1Z" transform="translate(-611.6 -184.18)"/><path class="cls-2" d="M1161.93,526.88a3.68,3.68,0,0,1-.52.16l-1.61.42-6.35,1.63.1-.14c.08,3.71.19,8.6.32,14.5l-.17-.21,8.58,1.77.15,0,0,.14a35.35,35.35,0,0,0,3.76,8.6l.09.15-.09.14-4.53,7.51,0-.38,10.44,10.06-.41,0,7.32-4.81.18-.11.19.1a35.32,35.32,0,0,0,8.71,3.43l.21,0,.06.22c.64,2.64,1.36,5.55,2.08,8.51l-.37-.29,14.5-.25-.38.31c.55-2.67,1.17-5.6,1.78-8.58l0-.24.24-.06a35.35,35.35,0,0,0,8.57-3.73l.22-.13.21.13,7.49,4.55-.51.07L1232.31,560l0,.53-4.8-7.34-.14-.21.13-.23a35.24,35.24,0,0,0,3.43-8.68h0l.07-.25.24-.06,8.52-2.07-.33.42q-.12-7.35-.23-14.5l.34.4-8.58-1.8-.25,0-.07-.24a35.47,35.47,0,0,0-3.71-8.58l-.13-.21.13-.21q2.31-3.81,4.56-7.49l.06.5-10.41-10.09.49,0-7.34,4.79-.2.13-.2-.12a35.32,35.32,0,0,0-8.69-3.45l-.22-.06,0-.21c-.71-2.92-1.39-5.75-2.06-8.52l.35.27-14.5.21.31-.26-1.82,8.57,0,.19-.17.05a35.35,35.35,0,0,0-8.62,3.7l-.14.09-.15-.09-7.47-4.57.31-.05c-3.92,4-7.27,7.45-10.13,10.38l0-.23c1.9,2.94,3.46,5.35,4.75,7.36l0,.07,0,.08a35.87,35.87,0,0,0-2.89,6.49l-.53,1.68c-.11.38-.18.55-.18.55s0-.21.11-.57.23-.95.46-1.71a35.27,35.27,0,0,1,2.79-6.58v.14c-1.32-2-2.9-4.39-4.84-7.31l-.08-.12.11-.11,10-10.47.14-.14.17.1,7.51,4.53h-.3a35.85,35.85,0,0,1,8.74-3.81l-.22.23c.57-2.73,1.16-5.57,1.78-8.58l.05-.26h.27l14.5-.27h.28l.07.27c.67,2.77,1.37,5.6,2.08,8.51l-.26-.27a36.24,36.24,0,0,1,8.89,3.51h-.4l7.33-4.8.26-.18.23.22,10.43,10.08.23.22-.17.28c-1.49,2.47-3,5-4.54,7.5v-.43a36,36,0,0,1,3.81,8.77l-.32-.3,8.58,1.8.33.07v.33q.12,7.15.24,14.5v.35l-.33.08-8.51,2.07.31-.31h0a36,36,0,0,1-3.52,8.89l0-.44c1.65,2.52,3.28,5,4.8,7.33l.18.29-.23.24L1222.83,571l-.24.24-.28-.17c-2.59-1.58-5.14-3.14-7.49-4.56h.43a36.21,36.21,0,0,1-8.78,3.8l.29-.31c-.63,3-1.24,5.9-1.81,8.57l-.06.31h-.32l-14.5.22h-.3l-.08-.29c-.71-3-1.42-5.88-2.06-8.52l.27.27A35.94,35.94,0,0,1,1179,567l.36,0-7.35,4.79-.22.14-.19-.18-10.4-10.11-.18-.17.13-.21c1.6-2.63,3.15-5.15,4.57-7.48v.29a35.68,35.68,0,0,1-3.76-8.75l.19.18-8.57-1.83-.17,0v-.17c-.07-5.91-.12-10.79-.16-14.5v-.11l.1,0,6.34-1.47,1.64-.36A4.3,4.3,0,0,1,1161.93,526.88Z" transform="translate(-611.6 -184.18)"/><path class="cls-3" d="M737.82,486.89a39.67,39.67,0,0,1,3.89-9.84l-5.37-8.2,11.28-11.66,8.38,5.09a39.78,39.78,0,0,1,9.7-4.2l2-9.6,16.22-.26,2.32,9.52a39.45,39.45,0,0,1,9.83,3.89l8.21-5.36L816,467.55l-5.1,8.38a39.26,39.26,0,0,1,4.21,9.7l9.59,2,.27,16.22-9.52,2.32a40.39,40.39,0,0,1-3.89,9.83l5.36,8.21-11.28,11.65-8.38-5.09a39.8,39.8,0,0,1-9.7,4.21l-2,9.59-16.22.26L767,535.32a39.45,39.45,0,0,1-9.83-3.89l-8.21,5.37-11.65-11.29,5.09-8.37a40,40,0,0,1-4.21-9.7l-9.59-2-.27-16.22,9.53-2.32Zm21.38,9.19a17.4,17.4,0,1,0,17.11-17.68A17.39,17.39,0,0,0,759.2,496.08Z" transform="translate(-611.6 -184.18)"/><path class="cls-3" d="M1111.52,445a11.67,11.67,0,0,1,1.12-2.84l-1.55-2.37,3.26-3.36,2.42,1.47a11.65,11.65,0,0,1,2.8-1.22l.58-2.77,4.68-.07.67,2.75a11.52,11.52,0,0,1,2.84,1.12l2.37-1.55,3.37,3.26-1.47,2.42a11.29,11.29,0,0,1,1.21,2.8l2.77.58.08,4.68-2.75.67a11.31,11.31,0,0,1-1.13,2.84l1.55,2.37-3.25,3.36-2.42-1.47a11.65,11.65,0,0,1-2.8,1.22l-.58,2.77-4.69.07-.67-2.75a11.21,11.21,0,0,1-2.83-1.12l-2.37,1.55-3.37-3.26,1.47-2.42a11.29,11.29,0,0,1-1.21-2.8l-2.77-.58-.08-4.68,2.75-.67Zm6.17,2.65a5,5,0,1,0,4.94-5.1A5,5,0,0,0,1117.69,447.63Z" transform="translate(-611.6 -184.18)"/><path class="cls-4" d="M630,493.46a16.2,16.2,0,0,1,1.56-3.93l-2.15-3.28,4.51-4.66,3.35,2a15.64,15.64,0,0,1,3.88-1.69l.8-3.83,6.48-.11.93,3.81a15.78,15.78,0,0,1,3.93,1.55l3.28-2.14,4.66,4.51-2,3.35a16.09,16.09,0,0,1,1.68,3.87l3.84.81.1,6.48-3.8.93a15.81,15.81,0,0,1-1.56,3.93l2.15,3.28L657,513l-3.35-2a16,16,0,0,1-3.88,1.68l-.8,3.83-6.48.11-.93-3.81a15.78,15.78,0,0,1-3.93-1.55l-3.28,2.14-4.66-4.51,2-3.34a16,16,0,0,1-1.68-3.88l-3.84-.8-.1-6.49,3.8-.92Zm8.55,3.67a7,7,0,1,0,6.84-7.07A6.95,6.95,0,0,0,638.5,497.13Z" transform="translate(-611.6 -184.18)"/><path class="cls-4" d="M1219.46,389.07a36.65,36.65,0,0,1,3.56-9l-4.9-7.5,10.32-10.67,7.66,4.66a36.77,36.77,0,0,1,8.87-3.85l1.84-8.77,14.83-.24,2.13,8.71a36,36,0,0,1,9,3.56l7.51-4.91,10.66,10.32-4.66,7.66a36.29,36.29,0,0,1,3.85,8.88l8.77,1.83.24,14.84-8.7,2.12a36.42,36.42,0,0,1-3.56,9l4.9,7.51-10.32,10.66-7.66-4.66a36,36,0,0,1-8.87,3.85l-1.84,8.78-14.83.24-2.13-8.71a36.42,36.42,0,0,1-9-3.56l-7.51,4.91L1219,424.4l4.66-7.67a36.22,36.22,0,0,1-3.85-8.87L1211,406l-.25-14.83,8.71-2.12Zm19.56,8.4a15.92,15.92,0,1,0,15.65-16.17A15.92,15.92,0,0,0,1239,397.47Z" transform="translate(-611.6 -184.18)"/><path class="cls-5" d="M653.48,636.36a33.37,33.37,0,0,1,3.22-8.15l-4.44-6.79,9.34-9.65,6.94,4.21a33.25,33.25,0,0,1,8-3.48l1.67-7.94,13.43-.22,1.92,7.88a33.3,33.3,0,0,1,8.14,3.22l6.79-4.44,9.66,9.34L714,627.28a33.25,33.25,0,0,1,3.48,8l7.94,1.67.22,13.43-7.88,1.92a32.91,32.91,0,0,1-3.22,8.14l4.44,6.8-9.34,9.65-6.94-4.22a32.49,32.49,0,0,1-8,3.48l-1.66,8-13.43.22-1.93-7.89a32.91,32.91,0,0,1-8.14-3.22l-6.79,4.44L653,668.34l4.21-6.94a33.09,33.09,0,0,1-3.48-8l-7.94-1.66-.22-13.43,7.88-1.92Zm17.7,7.61a14.41,14.41,0,1,0,14.18-14.65A14.42,14.42,0,0,0,671.18,644Z" transform="translate(-611.6 -184.18)"/><path class="cls-5" d="M935.24,358.52a14.13,14.13,0,0,1,1.4-3.54l-1.94-3,4.07-4.2,3,1.83a14.36,14.36,0,0,1,3.5-1.51l.72-3.46,5.85-.1.84,3.43a14.78,14.78,0,0,1,3.55,1.41l3-1.94,4.21,4.07-1.84,3a14.38,14.38,0,0,1,1.52,3.5l3.46.72.09,5.85-3.43.84a14.52,14.52,0,0,1-1.4,3.54l1.93,3-4.07,4.21-3-1.84a14.61,14.61,0,0,1-3.5,1.52l-.72,3.46-5.85.09-.84-3.43a14.15,14.15,0,0,1-3.54-1.41l-3,1.94-4.2-4.07,1.83-3a14.19,14.19,0,0,1-1.51-3.5l-3.46-.72-.1-5.85,3.44-.84Zm7.7,3.32a6.28,6.28,0,1,0,6.18-6.38A6.28,6.28,0,0,0,942.94,361.84Z" transform="translate(-611.6 -184.18)"/><path class="cls-6" d="M1238.5,767.59c7.37-3.8,16-4.29,24.23-2.94,4.39.73,9,2,12,5.34s3.55,9.11.12,12c-2,1.69-4.9,1.94-7.55,1.91-6.4-.07-13.51-1.2-18.62,2.66-2.92,2.19-4.87,5.85-8.36,6.93s-7.26-1-9.07-4-1.88-6.93-1-10.41A15.89,15.89,0,0,1,1238.5,767.59Z" transform="translate(-611.6 -184.18)"/><path class="cls-6" d="M1221.62,735c4.5,6.44,13.26,4.31,17.32.38s5.78-9.62,7.34-15c3.57-12.41,7.17-25.42,4.52-38.05-.8-3.78-2.21-7.55-4.86-10.35s-6.74-4.47-10.47-3.48c-4.42,1.17-7.16,5.49-9.14,9.61a90.77,90.77,0,0,0-9,38.92c0,6.27.72,12.85,4.26,18" transform="translate(-611.6 -184.18)"/><path class="cls-6" d="M1209.24,744.24c4.9-5.81,5.82-14.28,3.65-21.55s-7.1-13.47-12.77-18.52a68.6,68.6,0,0,0-22.85-13.48,24.46,24.46,0,0,0-10.28-1.75c-3.49.33-7,2.12-8.63,5.22-2.4,4.59-.09,10.15,2.4,14.69a173.79,173.79,0,0,0,15,22.86c4.5,5.8,9.65,11.52,16.51,14.15s14,2.31,17.62-2.45" transform="translate(-611.6 -184.18)"/><path class="cls-2" d="M1221.31,832.08a13.68,13.68,0,0,0,.41-2.92c.21-2.13.47-4.8.78-8a115.34,115.34,0,0,1,1.79-11.71,90.72,90.72,0,0,1,4.26-13.82,50.79,50.79,0,0,1,7-12.5,26.35,26.35,0,0,1,8.92-7.41,25,25,0,0,1,7.51-2.34,14.13,14.13,0,0,0,2.91-.42,12.94,12.94,0,0,0-3-.05,22.86,22.86,0,0,0-7.83,2,26.29,26.29,0,0,0-9.41,7.48,49.75,49.75,0,0,0-7.31,12.75,84.88,84.88,0,0,0-4.23,14,98.56,98.56,0,0,0-1.55,11.85c-.26,3.39-.35,6.13-.4,8A14.09,14.09,0,0,0,1221.31,832.08Z" transform="translate(-611.6 -184.18)"/><path class="cls-2" d="M1221.86,825.94a5.76,5.76,0,0,0,.08-1.36c0-1,0-2.3,0-3.88,0-3.36,0-8.24.17-14.25.3-12,1.34-25,3.34-43.25,1.89-17.17,4.44-37.16,7.12-50.15.58-3,1.16-5.61,1.7-7.94s1-4.35,1.4-6l.91-3.77a5.72,5.72,0,0,0,.23-1.34,5.89,5.89,0,0,0-.47,1.28c-.29,1-.67,2.2-1.13,3.71s-1,3.62-1.59,5.94-1.25,5-1.88,7.92a439.23,439.23,0,0,0-7.49,46.53c-2,18.3-2.91,35-3,47-.07,6,.06,10.92.21,14.29.1,1.57.18,2.85.24,3.87A6.27,6.27,0,0,0,1221.86,825.94Z" transform="translate(-611.6 -184.18)"/><path class="cls-2" d="M1221.94,793.81a24.8,24.8,0,0,0,0-4.06,107.72,107.72,0,0,0-1.24-11,142.62,142.62,0,0,0-3.57-16,131.26,131.26,0,0,0-6.69-18.93c-5.55-13.17-13.09-23.93-19.65-30.6a49.82,49.82,0,0,0-4.62-4.29c-.71-.6-1.34-1.2-2-1.68l-1.8-1.23a26.45,26.45,0,0,0-3.41-2.19c-.19.27,4.83,3.23,11.19,10s13.65,17.43,19.15,30.49a149.4,149.4,0,0,1,6.73,18.76,160.14,160.14,0,0,1,3.8,15.84c.84,4.56,1.32,8.29,1.62,10.87A27.28,27.28,0,0,0,1221.94,793.81Z" transform="translate(-611.6 -184.18)"/><polygon class="cls-2" points="579.28 666.32 582.51 710.43 639.18 710.43 642.4 666.32 579.28 666.32"/><rect class="cls-2" x="573.81" y="648.93" width="75.35" height="17.39"/><polygon class="cls-6" points="573.81 708.74 573.81 713.56 577.35 713.56 647.92 713.56 647.92 708.74 573.81 708.74"/><polygon class="cls-2" points="580.82 722.05 577.35 713.56 645.22 713.56 641.17 722.05 580.82 722.05"/><path class="cls-7" d="M1252.94,864.91s-.07.15-.26.41-.5.66-.85,1.12l-3.3,4.22-.14.19-.15-.19c-2.07-2.87-4.84-6.71-8.11-11.22h.47l-8,11.31-.25.35-.28-.33-9.47-11.27h.55l-.52.66-8.47,10.61-.28.36-.27-.37c-2.87-4.07-5.56-7.87-8-11.31l.46,0-9.84,11.21-.17.2-.14-.23-3.08-5.17c-.32-.57-.58-1-.79-1.38a2.47,2.47,0,0,1-.24-.49,2.34,2.34,0,0,1,.33.43l.87,1.33,3.24,5.08-.31,0,9.68-11.35.25-.29.22.31,8.06,11.25h-.54c2.68-3.38,5.51-7,8.44-10.63l.53-.66.26-.34.28.34,9.45,11.29-.53,0,8.06-11.25.24-.33.23.33c3.19,4.56,5.91,8.43,7.94,11.34h-.29l3.43-4.12.92-1.06A2.53,2.53,0,0,1,1252.94,864.91Z" transform="translate(-611.6 -184.18)"/><path class="cls-7" d="M1254.79,850.2c0,.2-14.21.36-31.72.36s-31.72-.16-31.72-.36,14.2-.35,31.72-.35S1254.79,850,1254.79,850.2Z" transform="translate(-611.6 -184.18)"/><path class="cls-7" d="M1257.65,898.22c0,.19-15.43.35-34.47.35s-34.47-.16-34.47-.35,15.43-.36,34.47-.36S1257.65,898,1257.65,898.22Z" transform="translate(-611.6 -184.18)"/><path class="cls-6" d="M660.82,404.23a19.2,19.2,0,0,1,2.94-.07c.94,0,2.1,0,3.44.11s2.88.14,4.56.35a103.25,103.25,0,0,1,11.74,1.86,107.15,107.15,0,0,1,27.3,10A102.22,102.22,0,0,1,721,422.61c1.42.92,2.62,1.87,3.71,2.67s2,1.52,2.7,2.13a19.64,19.64,0,0,1,2.2,1.95,18.68,18.68,0,0,1-2.4-1.69c-.75-.57-1.68-1.26-2.79-2s-2.32-1.67-3.76-2.55a115.25,115.25,0,0,0-10.2-5.95,113.59,113.59,0,0,0-27.11-9.91,113.2,113.2,0,0,0-11.64-2c-1.67-.25-3.19-.34-4.52-.48s-2.48-.21-3.43-.25A18.88,18.88,0,0,1,660.82,404.23Z" transform="translate(-611.6 -184.18)"/><path class="cls-6" d="M630.46,586.78a5.37,5.37,0,0,1,.88-.74l2.62-2c1.14-.87,2.55-1.91,4.26-3s3.58-2.47,5.8-3.77,4.58-2.79,7.25-4.2,5.53-2.88,8.57-4.38a163.45,163.45,0,0,1,41.93-13.29c3.35-.53,6.53-1.08,9.53-1.36s5.79-.58,8.35-.74,4.87-.21,6.91-.27,3.78,0,5.21,0l3.3.12a5.84,5.84,0,0,1,1.14.1,6,6,0,0,1-1.15.07l-3.29,0c-1.43,0-3.17,0-5.2.13s-4.34.13-6.88.39-5.33.43-8.31.84-6.14.89-9.47,1.43a171.58,171.58,0,0,0-41.74,13.23c-3,1.48-5.94,2.83-8.57,4.29s-5.07,2.79-7.27,4.1-4.13,2.56-5.85,3.64-3.16,2.07-4.32,2.9l-2.72,1.86A5.53,5.53,0,0,1,630.46,586.78Z" transform="translate(-611.6 -184.18)"/><path class="cls-6" d="M748.22,674.86a3.29,3.29,0,0,1,.12-.89l.49-2.51c.21-1.09.5-2.42.9-3.94s.79-3.29,1.36-5.19c1.06-3.83,2.53-8.33,4.37-13.26s4.16-10.23,6.86-15.66S768,623,770.76,618.54s5.57-8.3,8-11.44c1.18-1.6,2.34-3,3.34-4.2s1.87-2.26,2.62-3.08l1.71-1.9a3.42,3.42,0,0,1,.64-.62s-.15.27-.51.73-1,1.2-1.59,2-1.55,1.91-2.5,3.17-2.08,2.64-3.23,4.26c-2.36,3.18-5,7.07-7.82,11.5s-5.62,9.44-8.35,14.83-5,10.69-6.88,15.56-3.4,9.35-4.53,13.15c-.61,1.89-1,3.62-1.48,5.14s-.77,2.82-1,3.9-.47,1.81-.65,2.47A3.19,3.19,0,0,1,748.22,674.86Z" transform="translate(-611.6 -184.18)"/><path class="cls-6" d="M970.85,225.09a6.44,6.44,0,0,1-.64,1l-2,2.76c-.87,1.19-1.92,2.65-3.07,4.39s-2.54,3.66-3.92,5.9-3,4.63-4.49,7.31-3.16,5.54-4.83,8.58c-3.22,6.14-6.52,13-9.56,20.43s-5.44,14.65-7.41,21.3c-.93,3.34-1.85,6.51-2.54,9.52s-1.36,5.8-1.88,8.37-.94,4.91-1.32,7-.66,3.83-.86,5.28-.39,2.5-.52,3.34a5.88,5.88,0,0,1-.24,1.16,5.52,5.52,0,0,1,.07-1.18l.36-3.36c.15-1.47.37-3.25.72-5.32s.65-4.42,1.19-7,1-5.41,1.79-8.42,1.56-6.21,2.47-9.57a207.85,207.85,0,0,1,17-41.88c1.69-3,3.27-6,4.91-8.58s3.14-5.08,4.6-7.27,2.83-4.14,4-5.85,2.28-3.15,3.19-4.3l2.09-2.67A5.69,5.69,0,0,1,970.85,225.09Z" transform="translate(-611.6 -184.18)"/><path class="cls-6" d="M1118.38,395.33a4.53,4.53,0,0,1-1,.18l-2.84.38-2,.25c-.75.11-1.55.29-2.42.44-1.72.35-3.71.63-5.84,1.25l-3.37.88c-1.17.31-2.34.76-3.58,1.15-2.5.75-5,1.86-7.77,3a94.38,94.38,0,0,0-31,21.74c-1.95,2.18-3.86,4.21-5.41,6.3-.79,1-1.61,2-2.3,3s-1.34,1.95-2,2.87c-1.31,1.79-2.25,3.57-3.16,5.07-.44.76-.88,1.46-1.24,2.12s-.64,1.28-.93,1.84l-1.31,2.55a5.5,5.5,0,0,1-.51.86,4.07,4.07,0,0,1,.35-.94c.31-.68.7-1.54,1.17-2.61l.87-1.89c.34-.68.76-1.38,1.18-2.16a59.82,59.82,0,0,1,3.07-5.17l1.93-2.93c.68-1,1.5-2,2.28-3,1.54-2.13,3.45-4.19,5.4-6.41a91.9,91.9,0,0,1,31.21-21.92c2.74-1.09,5.33-2.19,7.86-2.91,1.25-.38,2.44-.82,3.62-1.12l3.41-.82c2.15-.59,4.16-.83,5.9-1.14.88-.13,1.69-.29,2.44-.38l2.07-.17,2.86-.22A4.05,4.05,0,0,1,1118.38,395.33Z" transform="translate(-611.6 -184.18)"/><path class="cls-6" d="M1238.87,492.84a2.13,2.13,0,0,1-.44-.12l-1.23-.42-4.7-1.69-3.39-1.24c-1.25-.43-2.63-.84-4.09-1.32-2.94-.91-6.25-2.08-10-3l-5.87-1.6c-2-.55-4.2-1-6.42-1.5-4.43-1.1-9.23-1.9-14.28-2.82a247.71,247.71,0,0,0-66.46-2c-5.09.62-9.94,1.12-14.42,1.94-2.25.39-4.43.68-6.51,1.11l-6,1.24c-3.82.71-7.19,1.68-10.19,2.41-1.49.38-2.89.71-4.16,1.06l-3.46,1-4.8,1.4-1.25.35a2.32,2.32,0,0,1-.44.09,1.49,1.49,0,0,1,.41-.18l1.23-.42,4.76-1.55,3.44-1.11c1.27-.37,2.66-.72,4.15-1.13,3-.78,6.36-1.79,10.18-2.54l6-1.3c2.07-.44,4.26-.75,6.51-1.15,4.5-.86,9.35-1.39,14.46-2a241.78,241.78,0,0,1,66.67,2c5.06.95,9.87,1.78,14.31,2.91,2.22.54,4.38,1,6.43,1.55l5.87,1.66c3.76,1,7.07,2.2,10,3.16,1.46.5,2.83.93,4.07,1.39l3.37,1.31,4.66,1.84,1.2.5A1.65,1.65,0,0,1,1238.87,492.84Z" transform="translate(-611.6 -184.18)"/></g><g id="Speech_Bubble" data-name="Speech Bubble"><path class="cls-8" d="M984.17,224.25V271C973.56,281.4,935.26,320,935.26,320h48.91v36.78a23.73,23.73,0,0,0,23.51,23.72l271.16,2.57a23.73,23.73,0,0,0,24-23.73V224.25a23.73,23.73,0,0,0-23.73-23.73H1007.9A23.74,23.74,0,0,0,984.17,224.25Z" transform="translate(-611.6 -184.18)"/><path class="cls-9" d="M984.17,224.25s0-.9.11-2.65a24,24,0,0,1,2.08-7.5,23.53,23.53,0,0,1,3-4.89,25.68,25.68,0,0,1,5.1-4.72,24.45,24.45,0,0,1,7.37-3.35,32.91,32.91,0,0,1,9.18-.82l110.18-.17,76.09-.07,42.38,0h39.19c1,0,1.95.07,2.92.17a23.62,23.62,0,0,1,2.89.51,24.24,24.24,0,0,1,17.1,15.19,25.08,25.08,0,0,1,1.38,5.87c.15,2,.14,4,.13,6v12q0,24.15,0,49.27v51q0,6.48,0,13c0,2.17,0,4.35,0,6.54a25.12,25.12,0,0,1-1,6.61,24.22,24.22,0,0,1-7.13,11.23,23,23,0,0,1-5.61,3.74,23.47,23.47,0,0,1-6.45,2.06,33.84,33.84,0,0,1-6.41.34l-6.32-.06-12.57-.12-24.92-.24-48.75-.46-92.42-.91-84.07-.84a24.14,24.14,0,0,1-17.6-7.9,24.58,24.58,0,0,1-6.32-17.54q0-18.48,0-35.51l.39.39-48.91-.05h-.81l.57-.58,49-49L984,271c0-15.17.08-26.85.11-34.76,0-3.93,0-6.92.06-8.95s0-3,0-3,0,1,.06,3,0,5,.06,8.95c0,7.91.06,19.59.11,34.76v.09l-.07.07L935.5,320.28l-.24-.58,48.91-.05h.4V320q0,17,0,35.51a23.71,23.71,0,0,0,6.12,16.95,23.25,23.25,0,0,0,17,7.59l84.06.75,92.43.85,48.75.45,24.92.23,12.57.12,6.32.06a32.11,32.11,0,0,0,6.22-.33A23.31,23.31,0,0,0,1301.3,366a24.23,24.23,0,0,0,.94-6.32c0-2.18,0-4.36,0-6.53v-13q0-25.92,0-51t0-49.27v-12c0-2,0-4-.11-5.9a23.93,23.93,0,0,0-1.33-5.63,23.21,23.21,0,0,0-16.38-14.58c-3.64-1-7.49-.57-11.29-.66h-33.48l-42.38,0-76.09-.07L1011,200.73a32.5,32.5,0,0,0-9.09.77,24,24,0,0,0-7.28,3.25,25.73,25.73,0,0,0-5.07,4.63,23.88,23.88,0,0,0-3.05,4.81A25.12,25.12,0,0,0,984.17,224.25Z" transform="translate(-611.6 -184.18)"/><text class="cls-10" transform="translate(394.7 76.42)"><tspan class="cls-11">A</tspan><tspan x="22.63" y="0">n er</tspan><tspan class="cls-12" x="82.38" y="0">r</tspan><tspan x="94.82" y="0">or occur</tspan><tspan class="cls-13" x="223.27" y="0">r</tspan><tspan x="235.99" y="0">ed</tspan><tspan x="-2.67" y="41.29" xml:space="preserve"> while p</tspan><tspan class="cls-12" x="115.9" y="41.29">r</tspan><tspan x="128.34" y="41.29">ocessing </tspan><tspan class="cls-14" x="33.7" y="82.59">y</tspan><tspan x="51.27" y="82.59">our </tspan><tspan class="cls-15" x="111.61" y="82.59">r</tspan><tspan x="124.33" y="82.59">equest.</tspan></text></g><g id="Robot"><path class="cls-16" d="M838.49,200.95h11.08a13.95,13.95,0,0,1,13.95,13.95v24a13.95,13.95,0,0,1-13.95,13.95H838.49a0,0,0,0,1,0,0v-51.9a0,0,0,0,1,0,0Z" transform="translate(-524.36 481.29) rotate(-44.79)"/><path class="cls-9" d="M860.4,254.19l0,0-36.6-36.86,0,0,1.53-1.52a22.77,22.77,0,0,1,16.14-6.65h.08a22.74,22.74,0,0,1,16.17,6.76l4.36,4.39a22.91,22.91,0,0,1-.12,32.38ZM823.89,217.3l36.51,36.77,1.51-1.5A22.83,22.83,0,0,0,862,220.3l-4.36-4.38a22.62,22.62,0,0,0-16.11-6.74h-.08a22.69,22.69,0,0,0-16.08,6.62Z" transform="translate(-611.6 -184.18)"/><path class="cls-16" d="M710.7,325.85h11.08a13.95,13.95,0,0,1,13.95,13.95v24a14,14,0,0,1-14,14H710.7a0,0,0,0,1,0,0v-51.9a0,0,0,0,1,0,0Z" transform="translate(881.67 -64.36) rotate(137.3)"/><path class="cls-9" d="M732.93,370c-.31,0-.62,0-.94,0a22.71,22.71,0,0,1-15.91-7.35L711.89,358a22.91,22.91,0,0,1,1.3-32.36l1.62-1.5,0,0,35.22,38.17,0,0-1.59,1.47A22.71,22.71,0,0,1,732.93,370Zm-19.69-44.21A22.82,22.82,0,0,0,712,358l4.19,4.55A22.67,22.67,0,0,0,732,369.85l.93,0a22.68,22.68,0,0,0,15.46-6.05l1.56-1.44L714.81,324.3Z" transform="translate(-611.6 -184.18)"/><rect class="cls-16" x="703.04" y="273.73" width="4.1" height="33.9" transform="translate(-575.42 472.84) rotate(-51.11)"/><path class="cls-9" d="M694.9,271.72A8.36,8.36,0,1,1,683.15,273,8.37,8.37,0,0,1,694.9,271.72Z" transform="translate(-611.6 -184.18)"/><rect class="cls-17" x="718.28" y="243.25" width="162.52" height="122.63" rx="16.5" transform="translate(-594.01 467.62) rotate(-44.8)"/><polygon class="cls-16" points="185.35 36.55 181.74 22.72 172.31 24.29 169.59 14.3 172.67 13.6 174.83 20.86 184.22 19.59 188.16 33.76 185.35 36.55"/><rect class="cls-9" x="717.14" y="266.78" width="139.49" height="50.1" rx="13.96" transform="translate(-588.71 455.01) rotate(-44.8)"/><path class="cls-9" d="M841.46,282.62s.2-.26.61-.74a22.69,22.69,0,0,0,1.8-2.17,27.69,27.69,0,0,0,4.81-9.62,30.76,30.76,0,0,0,1.08-7.7,29.84,29.84,0,0,0-1.47-9.12,28.28,28.28,0,0,0-5.11-9.26l-1.93-2.12-2.1-2.1a41.61,41.61,0,0,0-4.53-4.13,28.85,28.85,0,0,0-11.83-5.35,28.63,28.63,0,0,0-20.78,4,34.35,34.35,0,0,0-5.91,4.95q-5.62,5.58-11.56,11.5c-15.84,15.73-33.24,33-51.5,51.18a28.48,28.48,0,0,0-8.15,16.56,29.58,29.58,0,0,0,.3,9.16,28.44,28.44,0,0,0,3.15,8.44,31.12,31.12,0,0,0,2.48,3.71c1,1.12,1.93,2.23,3,3.28a50.49,50.49,0,0,0,6.46,5.93,28.67,28.67,0,0,0,34.33-.76c1-.84,1.94-1.67,2.85-2.57l5.38-5.32,19.63-19.42,28.47-28.07,7.77-7.61,2-2c.46-.44.72-.65.72-.65s-.21.25-.66.71l-2,2c-1.78,1.78-4.35,4.38-7.66,7.71L802.9,321.34l-19.56,19.49L778,346.17c-.91.9-1.91,1.77-2.9,2.63a32.37,32.37,0,0,1-3.29,2.25,29.17,29.17,0,0,1-32-1.41,49.89,49.89,0,0,1-6.57-6c-1.07-1-2.07-2.19-3.07-3.34a31.81,31.81,0,0,1-2.56-3.82,29.37,29.37,0,0,1-3.25-8.69,30.4,30.4,0,0,1-.31-9.43,29.37,29.37,0,0,1,8.38-17.05L784,250.16l11.59-11.48a35.68,35.68,0,0,1,6-5,29.23,29.23,0,0,1,21.3-4A29.45,29.45,0,0,1,835,235.18a43,43,0,0,1,4.57,4.2l2.09,2.12,2,2.17a28.76,28.76,0,0,1,5.15,9.45,30.46,30.46,0,0,1,1.42,9.27,31.19,31.19,0,0,1-1.17,7.79,27.56,27.56,0,0,1-5,9.64,20.82,20.82,0,0,1-1.87,2.12C841.7,282.4,841.46,282.62,841.46,282.62Z" transform="translate(-611.6 -184.18)"/><path class="cls-18" d="M756.42,334.2c-.24,0-.52-6.6-.64-14.74s0-14.75.22-14.76.52,6.6.63,14.75S756.65,334.2,756.42,334.2Z" transform="translate(-611.6 -184.18)"/><path class="cls-18" d="M770.69,318.29c0,.23-6.59.72-14.73,1.09s-14.76.48-14.78.24,6.59-.72,14.74-1.09S770.68,318.05,770.69,318.29Z" transform="translate(-611.6 -184.18)"/><path class="cls-18" d="M814.82,274.68c-.24,0-.52-6.6-.64-14.74s0-14.75.22-14.76.52,6.6.64,14.75S815.05,274.68,814.82,274.68Z" transform="translate(-611.6 -184.18)"/><path class="cls-18" d="M829.09,258.77c0,.23-6.59.72-14.73,1.09s-14.76.47-14.77.24,6.58-.73,14.73-1.09S829.08,258.53,829.09,258.77Z" transform="translate(-611.6 -184.18)"/><circle class="cls-9" cx="780.81" cy="192.53" r="8.36" transform="translate(-614.48 -172.07) rotate(-0.89)"/><path class="cls-9" d="M806.8,383.76a8.5,8.5,0,0,1-1.44-1.19c-.89-.81-2.16-2-3.71-3.48-3.11-2.95-7.36-7.09-12-11.69s-8.81-8.83-11.78-11.93-4.76-5.1-4.62-5.2a13.68,13.68,0,0,1,1.38,1.26c1,1,2.22,2.13,3.66,3.52,3.21,3.14,7.36,7.22,12,11.74s8.83,8.81,11.83,11.87l3.52,3.67A7.55,7.55,0,0,1,806.8,383.76Z" transform="translate(-611.6 -184.18)"/><path class="cls-9" d="M877.78,312.27a7.9,7.9,0,0,1-1.44-1.19c-.89-.81-2.16-2-3.71-3.47-3.11-3-7.36-7.09-12-11.7s-8.81-8.83-11.78-11.92-4.76-5.11-4.62-5.21A13.68,13.68,0,0,1,845.6,280l3.66,3.52c3.21,3.14,7.36,7.23,12,11.74s8.83,8.81,11.83,11.88l3.52,3.66A7.94,7.94,0,0,1,877.78,312.27Z" transform="translate(-611.6 -184.18)"/><rect class="cls-9" x="774.5" y="318.06" width="85.46" height="9.38" transform="translate(-597.61 494.7) rotate(-45.46)"/><path class="cls-9" d="M775.82,361.05a1.8,1.8,0,1,1-1.72-1.86A1.8,1.8,0,0,1,775.82,361.05Z" transform="translate(-611.6 -184.18)"/><path class="cls-9" d="M789.49,375.49a1.8,1.8,0,1,1-1.72-1.87A1.8,1.8,0,0,1,789.49,375.49Z" transform="translate(-611.6 -184.18)"/><path class="cls-9" d="M856.15,279.26a1.8,1.8,0,1,1-1.72-1.86A1.8,1.8,0,0,1,856.15,279.26Z" transform="translate(-611.6 -184.18)"/><path class="cls-9" d="M869.81,293.7a1.79,1.79,0,1,1-1.71-1.87A1.78,1.78,0,0,1,869.81,293.7Z" transform="translate(-611.6 -184.18)"/><path class="cls-18" d="M723.14,362.94a46.71,46.71,0,0,0-3.78-3.36c-1.24-1-2.79-2-4.38-3.42a17.22,17.22,0,0,1-4.17-5.48,18.49,18.49,0,0,1-1.29-12.25,15.44,15.44,0,0,1,1.34-3.54c.45-.76.73-1.17.78-1.14a35.73,35.73,0,0,0-1.53,4.81,19,19,0,0,0,1.47,11.75c2,4.35,5.78,6.74,8.16,8.8S723.24,362.89,723.14,362.94Z" transform="translate(-611.6 -184.18)"/><path class="cls-18" d="M794.37,231.12c.17.17-17.06,17.18-38.47,38s-38.9,37.53-39.07,37.36,17.06-17.17,38.48-38S794.21,231,794.37,231.12Z" transform="translate(-611.6 -184.18)"/><path class="cls-18" d="M687.87,284.12c0,.09-.86,0-2-.73A6.74,6.74,0,0,1,684,274.2c.71-1.12,1.43-1.55,1.49-1.47s-.45.67-1,1.76a6.85,6.85,0,0,0,1.79,8.41C687.19,283.69,687.91,284,687.87,284.12Z" transform="translate(-611.6 -184.18)"/><path class="cls-18" d="M778.86,198.62c0,.09-.92,0-2.09-.85a6.82,6.82,0,0,1-1.28-9.91c.92-1.1,1.77-1.43,1.81-1.35s-.6.61-1.32,1.71a6.81,6.81,0,0,0,1.17,9.08C778.12,198.18,778.91,198.49,778.86,198.62Z" transform="translate(-611.6 -184.18)"/><path class="cls-18" d="M840.9,211.76c0,.26-3.19.09-6.73,1.53s-5.77,3.69-5.95,3.5,1.86-2.82,5.63-4.29S841,211.56,840.9,211.76Z" transform="translate(-611.6 -184.18)"/><path class="cls-18" d="M772.88,386.68c-.17.17-5.64-5.22-12.23-12S748.87,362.17,749,362s5.64,5.23,12.23,12.05S773.05,386.52,772.88,386.68Z" transform="translate(-611.6 -184.18)"/><rect class="cls-17" x="280.3" y="596.04" width="70.12" height="99.38"/><path class="cls-9" d="M277.2,693.71h76.33a5.7,5.7,0,0,1,5.7,5.7v4.53a0,0,0,0,1,0,0H271.49a0,0,0,0,1,0,0v-4.53A5.7,5.7,0,0,1,277.2,693.71Z"/><rect class="cls-17" x="263.5" y="703.94" width="106.49" height="16.19"/><path class="cls-9" d="M961.67,868.67c0,.24-15.54.43-34.71.43s-34.72-.19-34.72-.43,15.54-.42,34.72-.42S961.67,868.44,961.67,868.67Z" transform="translate(-611.6 -184.18)"/><path class="cls-9" d="M961.67,856.86c0,.23-15.54.42-34.71.42s-34.72-.19-34.72-.42,15.54-.43,34.72-.43S961.67,856.62,961.67,856.86Z" transform="translate(-611.6 -184.18)"/><path class="cls-9" d="M961.67,845.25c0,.23-15.54.43-34.71.43s-34.72-.2-34.72-.43,15.54-.43,34.72-.43S961.67,845,961.67,845.25Z" transform="translate(-611.6 -184.18)"/><path class="cls-9" d="M961.67,833.43c0,.24-15.54.43-34.71.43s-34.72-.19-34.72-.43S907.78,833,927,833,961.67,833.2,961.67,833.43Z" transform="translate(-611.6 -184.18)"/><path class="cls-9" d="M961.67,821.82c0,.24-15.54.43-34.71.43s-34.72-.19-34.72-.43,15.54-.42,34.72-.42S961.67,821.59,961.67,821.82Z" transform="translate(-611.6 -184.18)"/><path class="cls-9" d="M961.67,810c0,.24-15.54.43-34.71.43s-34.72-.19-34.72-.43,15.54-.42,34.72-.42S961.67,809.77,961.67,810Z" transform="translate(-611.6 -184.18)"/><path class="cls-9" d="M961.67,798.4c0,.23-15.54.42-34.71.42s-34.72-.19-34.72-.42S907.78,798,927,798,961.67,798.16,961.67,798.4Z" transform="translate(-611.6 -184.18)"/><path class="cls-9" d="M961.67,786.58c0,.23-15.54.43-34.71.43s-34.72-.2-34.72-.43,15.54-.43,34.72-.43S961.67,786.34,961.67,786.58Z" transform="translate(-611.6 -184.18)"/><g class="cls-19"><polygon points="280.3 609.89 350.08 607.95 350.08 597.82 279.67 597.82 280.3 609.89"/></g><rect class="cls-17" x="390.13" y="596.04" width="70.12" height="99.38"/><path class="cls-9" d="M387,693.71h76.33a5.7,5.7,0,0,1,5.7,5.7v4.53a0,0,0,0,1,0,0H381.31a0,0,0,0,1,0,0v-4.53A5.7,5.7,0,0,1,387,693.71Z"/><rect class="cls-17" x="373.32" y="703.94" width="106.49" height="16.19"/><path class="cls-9" d="M1071.5,868.67c0,.24-15.55.43-34.72.43s-34.72-.19-34.72-.43,15.55-.42,34.72-.42S1071.5,868.44,1071.5,868.67Z" transform="translate(-611.6 -184.18)"/><path class="cls-9" d="M1071.5,856.86c0,.23-15.55.42-34.72.42s-34.72-.19-34.72-.42,15.55-.43,34.72-.43S1071.5,856.62,1071.5,856.86Z" transform="translate(-611.6 -184.18)"/><path class="cls-9" d="M1071.5,845.25c0,.23-15.55.43-34.72.43s-34.72-.2-34.72-.43,15.55-.43,34.72-.43S1071.5,845,1071.5,845.25Z" transform="translate(-611.6 -184.18)"/><path class="cls-9" d="M1071.5,833.43c0,.24-15.55.43-34.72.43s-34.72-.19-34.72-.43,15.55-.43,34.72-.43S1071.5,833.2,1071.5,833.43Z" transform="translate(-611.6 -184.18)"/><path class="cls-9" d="M1071.5,821.82c0,.24-15.55.43-34.72.43s-34.72-.19-34.72-.43,15.55-.42,34.72-.42S1071.5,821.59,1071.5,821.82Z" transform="translate(-611.6 -184.18)"/><path class="cls-9" d="M1071.5,810c0,.24-15.55.43-34.72.43s-34.72-.19-34.72-.43,15.55-.42,34.72-.42S1071.5,809.77,1071.5,810Z" transform="translate(-611.6 -184.18)"/><path class="cls-9" d="M1071.5,798.4c0,.23-15.55.42-34.72.42s-34.72-.19-34.72-.42,15.55-.43,34.72-.43S1071.5,798.16,1071.5,798.4Z" transform="translate(-611.6 -184.18)"/><path class="cls-9" d="M1071.5,786.58c0,.23-15.55.43-34.72.43s-34.72-.2-34.72-.43,15.55-.43,34.72-.43S1071.5,786.34,1071.5,786.58Z" transform="translate(-611.6 -184.18)"/><g class="cls-19"><polygon points="390.13 609.89 459.9 607.95 459.9 597.82 389.5 597.82 390.13 609.89"/></g><path class="cls-17" d="M1086.92,493.51h9.42a1.83,1.83,0,0,1,1.83,1.83v30.13a0,0,0,0,1,0,0h-13.09a0,0,0,0,1,0,0V495.34A1.83,1.83,0,0,1,1086.92,493.51Z" transform="translate(-281.17 1259.02) rotate(-75.83)"/><g class="cls-19"><path d="M1086.92,493.51h9.42a1.83,1.83,0,0,1,1.83,1.83v30.13a0,0,0,0,1,0,0h-13.09a0,0,0,0,1,0,0V495.34A1.83,1.83,0,0,1,1086.92,493.51Z" transform="translate(-281.17 1259.02) rotate(-75.83)"/></g><path class="cls-17" d="M1079,516.52h13.61a3,3,0,0,1,3,3v28.93a0,0,0,0,1,0,0H1076a0,0,0,0,1,0,0V519.56A3,3,0,0,1,1079,516.52Z" transform="translate(-307.88 1270.76) rotate(-75.83)"/><rect class="cls-17" x="1081.82" y="515.41" width="33.42" height="12.62" transform="translate(-287.82 1274.93) rotate(-75.83)"/><path class="cls-17" d="M1116.79,635.68s52.34-2.13,48-52.29c-3.32-38.43-60.48-38.78-60.48-38.78L1119,512.67s66.79,5.82,80,54.45c14.89,55-19.55,99.79-82.14,98.73Z" transform="translate(-611.6 -184.18)"/><rect class="cls-9" x="1098.17" y="505.45" width="20.38" height="45.36" transform="translate(-471.5 -410.93) rotate(12.46)"/><path class="cls-16" d="M1114.29,547.78c0,.38-4.52-.39-9.91-1.62s-9.74-2.45-9.68-2.68,4.47.62,9.87,1.85c2.7.62,5.13,1.21,6.89,1.66l2.07.55A3.41,3.41,0,0,1,1114.29,547.78Z" transform="translate(-611.6 -184.18)"/><path class="cls-16" d="M1116.05,539.81c0,.38-4.52-.39-9.91-1.62s-9.73-2.46-9.68-2.69,4.47.62,9.87,1.86c2.7.61,5.13,1.2,6.89,1.65l2.08.55A3.74,3.74,0,0,1,1116.05,539.81Z" transform="translate(-611.6 -184.18)"/><path class="cls-16" d="M1118.15,531.83c0,.38-4.51-.38-9.9-1.62s-9.74-2.45-9.68-2.68,4.47.62,9.87,1.85c2.7.62,5.13,1.21,6.89,1.66l2.07.55A4.55,4.55,0,0,1,1118.15,531.83Z" transform="translate(-611.6 -184.18)"/><path class="cls-16" d="M1119.57,523.86c0,.38-4.51-.39-9.91-1.62s-9.73-2.46-9.67-2.68,4.46.62,9.86,1.85c2.7.61,5.14,1.21,6.9,1.65l2.07.55A3.46,3.46,0,0,1,1119.57,523.86Z" transform="translate(-611.6 -184.18)"/><path class="cls-16" d="M1121.62,516.4c0,.38-4.51-.39-9.9-1.62s-9.74-2.46-9.68-2.69,4.46.62,9.87,1.86c2.69.61,5.13,1.2,6.89,1.65l2.07.55A3.46,3.46,0,0,1,1121.62,516.4Z" transform="translate(-611.6 -184.18)"/><path class="cls-9" d="M1128.22,665.52a22.91,22.91,0,0,1-1.06-4.42c-.53-2.76-1.15-6.58-1.63-10.84s-.73-8.12-.83-10.93a22.51,22.51,0,0,1,0-4.54,24.67,24.67,0,0,1,.55,4.5c.26,2.79.6,6.64,1.08,10.88s1,8.06,1.38,10.83A25.94,25.94,0,0,1,1128.22,665.52Z" transform="translate(-611.6 -184.18)"/><path class="cls-9" d="M1144.49,663c-.23.06-2.37-6.94-4.77-15.64s-4.18-15.8-4-15.86,2.36,6.94,4.77,15.64S1144.71,662.92,1144.49,663Z" transform="translate(-611.6 -184.18)"/><path class="cls-9" d="M1166.36,655.15a32.77,32.77,0,0,1-2.79-4.34l-6.38-10.68-6.42-10.66a33,33,0,0,1-2.52-4.51,29.21,29.21,0,0,1,3,4.19c1.77,2.65,4.13,6.37,6.64,10.54s4.67,8,6.17,10.82A29.52,29.52,0,0,1,1166.36,655.15Z" transform="translate(-611.6 -184.18)"/><path class="cls-9" d="M1184.76,640.4c-.15.18-6.66-5-14.55-11.53s-14.15-12-14-12.17,6.66,5,14.55,11.52S1184.91,640.21,1184.76,640.4Z" transform="translate(-611.6 -184.18)"/><path class="cls-9" d="M1196.61,620.17c-.09.22-7.79-2.78-17.21-6.7s-17-7.28-16.88-7.5,7.79,2.79,17.21,6.71S1196.7,620,1196.61,620.17Z" transform="translate(-611.6 -184.18)"/><path class="cls-9" d="M1202.42,598.33a37.13,37.13,0,0,1-5.52-.51l-13.24-1.64-13.25-1.59a37.68,37.68,0,0,1-5.48-.83,32.5,32.5,0,0,1,5.54.23c3.41.26,8.11.71,13.29,1.34s9.85,1.33,13.23,1.89A35.72,35.72,0,0,1,1202.42,598.33Z" transform="translate(-611.6 -184.18)"/><path class="cls-9" d="M1199.71,575.69a27.87,27.87,0,0,1-5,1.68c-3.1.91-7.41,2-12.23,3s-9.22,1.74-12.42,2.16a29,29,0,0,1-5.21.46A35.31,35.31,0,0,1,1170,582c3.17-.57,7.54-1.38,12.34-2.39s9.13-2,12.26-2.79A37.5,37.5,0,0,1,1199.71,575.69Z" transform="translate(-611.6 -184.18)"/><path class="cls-9" d="M1193.12,554c.11.21-6.91,4-15.68,8.38s-16,7.84-16.07,7.63,6.92-4,15.69-8.39S1193,553.76,1193.12,554Z" transform="translate(-611.6 -184.18)"/><path class="cls-9" d="M1179.63,536.36c.15.17-5.69,5.45-13,11.79s-13.44,11.32-13.6,11.14,5.69-5.45,13-11.79S1179.47,536.18,1179.63,536.36Z" transform="translate(-611.6 -184.18)"/><path class="cls-9" d="M1156.85,523.27c.2.12-3.48,6.6-8.23,14.48s-8.77,14.16-9,14,3.48-6.61,8.24-14.48S1156.65,523.15,1156.85,523.27Z" transform="translate(-611.6 -184.18)"/><path class="cls-9" d="M1136.45,515.08c.22.07-2,7.31-4.89,16.15s-5.46,16-5.69,15.9,2-7.31,4.88-16.16S1136.22,515,1136.45,515.08Z" transform="translate(-611.6 -184.18)"/><g class="cls-19"><path d="M1161,609.07a40.46,40.46,0,0,1-19,19.48,60.26,60.26,0,0,1-12.85,5c10,5.34,23.09,2.14,31.84-5.07s13.37-18.71,13.69-30.05a35.56,35.56,0,0,0-2.84-15.74c-2.23-4.89-5.91-10-10.78-12.29a30.14,30.14,0,0,1,3,8.6A50.17,50.17,0,0,1,1161,609.07Z" transform="translate(-611.6 -184.18)"/></g><path class="cls-9" d="M776.2,697.47a13.54,13.54,0,0,1,1.62,1.81c1,1.19,2.4,3,4,5.26a113.7,113.7,0,0,1,17.89,39.67c.63,2.72,1.06,4.95,1.28,6.5a12.47,12.47,0,0,1,.28,2.41,14.11,14.11,0,0,1-.6-2.35c-.32-1.53-.84-3.72-1.55-6.42a130.4,130.4,0,0,0-7.22-20.49,131.77,131.77,0,0,0-10.57-19c-1.56-2.32-2.86-4.16-3.79-5.41A12.65,12.65,0,0,1,776.2,697.47Z" transform="translate(-611.6 -184.18)"/><path class="cls-9" d="M769.24,691.65c.15-.17.93.26,1.73,1s1.32,1.43,1.16,1.6-.93-.25-1.73-1S769.08,691.83,769.24,691.65Z" transform="translate(-611.6 -184.18)"/><path class="cls-9" d="M770.83,686.84c.2-.12,1,.86,1.81,2.19s1.28,2.51,1.08,2.63-1-.86-1.81-2.19S770.63,687,770.83,686.84Z" transform="translate(-611.6 -184.18)"/><path class="cls-16" d="M801.15,754.16a7.91,7.91,0,0,1,.25-1.32c.22-.93.52-2.17.88-3.73.77-3.24,1.87-7.93,3.13-13.75,2.52-11.63,5.59-27.79,7.84-45.81,1.2-9,1.63-17.7,3.73-25.38a38.58,38.58,0,0,1,4.4-10.35,30.17,30.17,0,0,1,6.53-7.31,31,31,0,0,1,12.66-6.18,27.73,27.73,0,0,1,3.81-.57,10.38,10.38,0,0,1,1.34,0,8.17,8.17,0,0,1-1.33.21,33,33,0,0,0-3.74.72A31.77,31.77,0,0,0,828.29,647a30.13,30.13,0,0,0-6.31,7.22,38.23,38.23,0,0,0-4.24,10.19c-2,7.56-2.44,16.26-3.65,25.28A463.69,463.69,0,0,1,806,735.5c-1.33,5.8-2.53,10.47-3.39,13.69-.44,1.55-.78,2.78-1,3.7A7.82,7.82,0,0,1,801.15,754.16Z" transform="translate(-611.6 -184.18)"/><path class="cls-9" d="M803.09,624.21c.19-.1,1,2.78,4.18,6.1S816.1,637,823,638s13.35,0,17.88-.76l5.4-.94a9.17,9.17,0,0,1,2-.26,9.76,9.76,0,0,1-1.93.58c-1.26.32-3.08.75-5.36,1.21-4.52.88-11,2-18.11,1s-13-4.57-16.08-8.1a17.7,17.7,0,0,1-3.07-4.6A7.16,7.16,0,0,1,803.09,624.21Z" transform="translate(-611.6 -184.18)"/><path class="cls-9" d="M796.87,619c.17-.16,1,.35,1.75,1.15s1.31,1.58,1.14,1.75-1-.35-1.75-1.15S796.7,619.2,796.87,619Z" transform="translate(-611.6 -184.18)"/><path class="cls-9" d="M798.73,616.18c.2-.12.95.71,1.66,1.86s1.13,2.19.93,2.31-.94-.71-1.65-1.86S798.53,616.31,798.73,616.18Z" transform="translate(-611.6 -184.18)"/><path class="cls-9" d="M803.86,615.81c.23,0,.27,1,.09,2.15s-.52,2.06-.75,2-.27-1-.09-2.15S803.63,615.77,803.86,615.81Z" transform="translate(-611.6 -184.18)"/><path class="cls-16" d="M819.3,679.8a19.24,19.24,0,0,1-.15,2.92c-.14,1.87-.41,4.58-.8,7.91-.78,6.68-2.15,15.86-4.19,25.91s-4.4,19-6.3,25.49c-.94,3.22-1.75,5.81-2.36,7.59a17.48,17.48,0,0,1-1,2.74,20.54,20.54,0,0,1,.7-2.83c.53-1.95,1.24-4.53,2.09-7.67,1.74-6.47,4-15.46,6-25.49s3.5-19.17,4.43-25.81c.44-3.22.8-5.88,1.07-7.88A18.53,18.53,0,0,1,819.3,679.8Z" transform="translate(-611.6 -184.18)"/><path class="cls-16" d="M848.35,641.86c0,.16-2.35.17-6,1.13a29.62,29.62,0,0,0-20.54,19c-1.25,3.53-1.45,5.88-1.6,5.86a5,5,0,0,1,.06-1.65,24.8,24.8,0,0,1,1-4.4,28.48,28.48,0,0,1,21-19.36,24,24,0,0,1,4.47-.61A5.48,5.48,0,0,1,848.35,641.86Z" transform="translate(-611.6 -184.18)"/><path class="cls-16" d="M808.92,753.82a8.79,8.79,0,0,1,.07-1.24c.08-.8.2-2,.42-3.51a33.21,33.21,0,0,1,3.88-12.42c1.39-2.39,3.28-4.76,4.82-7.55a15.37,15.37,0,0,0,1.7-4.55,19,19,0,0,0,.14-5.18c-.26-3.56-1.3-7.39-.5-11.44a14,14,0,0,1,2.62-5.56c1.21-1.67,2.59-3.22,3.69-5a10.48,10.48,0,0,0,1.83-5.6,24.16,24.16,0,0,0-.78-5.85,34.71,34.71,0,0,1-.94-11.42,32.51,32.51,0,0,1,17.27-26,27.65,27.65,0,0,1,3.23-1.45,6.56,6.56,0,0,1,1.18-.37,6.26,6.26,0,0,1-1.11.53c-.73.33-1.81.83-3.14,1.58a33.48,33.48,0,0,0-9.76,8.32,32.39,32.39,0,0,0-6.89,17.49,34.19,34.19,0,0,0,1,11.17,25.38,25.38,0,0,1,.81,6.05,11.35,11.35,0,0,1-2,6c-1.16,1.8-2.54,3.36-3.72,5a13,13,0,0,0-2.49,5.23c-.77,3.78.21,7.57.47,11.2a19.76,19.76,0,0,1-.19,5.39,16.05,16.05,0,0,1-1.82,4.75c-1.62,2.85-3.53,5.19-4.92,7.52a34.31,34.31,0,0,0-4.08,12.16c-.23,1.45-.42,2.61-.57,3.49A7,7,0,0,1,808.92,753.82Z" transform="translate(-611.6 -184.18)"/><path class="cls-2" d="M850.28,658.84a15.85,15.85,0,0,0-4,.57,16.07,16.07,0,0,0-8.47,6.77c-2.62,3.91-3.79,9.53-4.41,15.72a199.82,199.82,0,0,1-3,20.19,324.24,324.24,0,0,1-9.77,35.76c-1.46,4.5-2.71,8.13-3.58,10.64-.42,1.18-.76,2.13-1,2.87a5,5,0,0,1-.41,1,4.9,4.9,0,0,1,.25-1c.22-.76.52-1.73.87-2.93L820,737.66c2.77-9,6.62-21.58,9.5-35.74,1.44-7.07,2.4-13.87,3.06-20.11s1.91-12,4.69-16a16,16,0,0,1,8.88-6.75,10.82,10.82,0,0,1,3.05-.37A5,5,0,0,1,850.28,658.84Z" transform="translate(-611.6 -184.18)"/><path class="cls-17" d="M790.05,748H821.8S802.55,900.81,696.26,900.29l1.36-29.8S769.93,866,790.05,748Z" transform="translate(-611.6 -184.18)"/><path class="cls-17" d="M665,852.18h9.42a1.83,1.83,0,0,1,1.83,1.83v30.13a0,0,0,0,1,0,0H663.19a0,0,0,0,1,0,0V854A1.83,1.83,0,0,1,665,852.18Z" transform="translate(-821.67 1338.35) rotate(-88.99)"/><g class="cls-19"><path d="M665,852.18h9.42a1.83,1.83,0,0,1,1.83,1.83v30.13a0,0,0,0,1,0,0H663.19a0,0,0,0,1,0,0V854A1.83,1.83,0,0,1,665,852.18Z" transform="translate(-821.67 1338.35) rotate(-88.99)"/></g><path class="cls-17" d="M662.51,875.91h13.61a3,3,0,0,1,3,3v28.93a0,0,0,0,1,0,0H659.47a0,0,0,0,1,0,0V879A3,3,0,0,1,662.51,875.91Z" transform="translate(-845.8 1361.25) rotate(-88.99)"/><rect class="cls-17" x="662.52" y="872.19" width="33.42" height="12.62" transform="translate(-822.67 1358) rotate(-88.99)"/><rect class="cls-9" x="680.07" y="859.82" width="20.38" height="45.36" transform="translate(-622.31 -175.69) rotate(-0.7)"/><path class="cls-16" d="M700.51,900.29c0,.38-4.49.65-10,.68s-10-.18-10-.41,4.49-.41,10-.44c2.76,0,5.27,0,7.08,0l2.15.06A3.83,3.83,0,0,1,700.51,900.29Z" transform="translate(-611.6 -184.18)"/><path class="cls-16" d="M700.41,892.12c0,.39-4.49.65-10,.68s-10-.17-10-.41,4.49-.41,10-.44c2.76,0,5.27,0,7.08,0l2.15.07A4.44,4.44,0,0,1,700.41,892.12Z" transform="translate(-611.6 -184.18)"/><path class="cls-16" d="M700.64,883.88c0,.38-4.48.65-10,.68s-10-.18-10-.41,4.49-.41,10-.44c2.77,0,5.28,0,7.09,0l2.15.06A3.66,3.66,0,0,1,700.64,883.88Z" transform="translate(-611.6 -184.18)"/><path class="cls-16" d="M700.21,875.79c0,.38-4.49.65-10,.68s-10-.17-10-.41,4.49-.41,10-.44c2.77,0,5.27,0,7.09,0l2.14.06A3.83,3.83,0,0,1,700.21,875.79Z" transform="translate(-611.6 -184.18)"/><path class="cls-16" d="M700.51,868.06c0,.38-4.49.65-10,.68s-10-.17-10-.41,4.5-.41,10-.44c2.76,0,5.27,0,7.08,0l2.15.06A3.83,3.83,0,0,1,700.51,868.06Z" transform="translate(-611.6 -184.18)"/><path class="cls-9" d="M711.65,898.79c.05,0,.08.26.1.82l0,.95-.29-.93a142.17,142.17,0,0,1-3.12-15c-.7-4.41-1.18-8.42-1.45-11.33a23.15,23.15,0,0,1-.22-4.73,28.73,28.73,0,0,1,.82,4.66c.42,2.89,1,6.87,1.7,11.26,1.13,7.11,2.27,13.11,2.53,15.08l-.26,0C711.55,899,711.61,898.78,711.65,898.79Z" transform="translate(-611.6 -184.18)"/><path class="cls-9" d="M726.73,895.89c-.23.07-2.59-6.84-5.29-15.44s-4.69-15.62-4.47-15.69,2.59,6.84,5.29,15.44S727,895.82,726.73,895.89Z" transform="translate(-611.6 -184.18)"/><path class="cls-9" d="M744.53,888.37c-.21.1-3.71-6.55-7.82-14.86s-7.27-15.13-7.05-15.24,3.71,6.55,7.82,14.86S744.74,888.26,744.53,888.37Z" transform="translate(-611.6 -184.18)"/><path class="cls-9" d="M760.31,876.57c-.19.14-4.72-5.67-10.12-13s-9.64-13.34-9.45-13.48,4.73,5.67,10.13,13S760.5,876.43,760.31,876.57Z" transform="translate(-611.6 -184.18)"/><path class="cls-9" d="M774.09,863.49c-.17.17-5.44-4.86-11.78-11.23S751,840.59,751.13,840.43s5.44,4.86,11.78,11.23S774.26,863.32,774.09,863.49Z" transform="translate(-611.6 -184.18)"/><path class="cls-9" d="M785.45,847.8a25.66,25.66,0,0,1-4.11-2.21l-9.69-5.66-9.7-5.66a26.62,26.62,0,0,1-3.94-2.5,24.34,24.34,0,0,1,4.23,2c2.56,1.32,6,3.23,9.84,5.45s7.16,4.31,9.57,5.89A24.56,24.56,0,0,1,785.45,847.8Z" transform="translate(-611.6 -184.18)"/><path class="cls-9" d="M793.13,831.9a24.87,24.87,0,0,1-4-1.79c-2.41-1.18-5.75-2.8-9.46-4.52s-7.11-3.21-9.57-4.28a25.61,25.61,0,0,1-3.94-1.87,19.53,19.53,0,0,1,4.16,1.31c2.53.93,6,2.34,9.71,4.06s7,3.45,9.38,4.76A19.64,19.64,0,0,1,793.13,831.9Z" transform="translate(-611.6 -184.18)"/><path class="cls-9" d="M802.32,816.52a22.69,22.69,0,0,1-4.55-.76c-2.78-.6-6.6-1.54-10.77-2.75s-7.89-2.46-10.56-3.45a23.64,23.64,0,0,1-4.25-1.79,25.31,25.31,0,0,1,4.44,1.22c2.71.84,6.46,2,10.61,3.21s7.93,2.23,10.67,3A26.78,26.78,0,0,1,802.32,816.52Z" transform="translate(-611.6 -184.18)"/><path class="cls-9" d="M807.22,801c0,.23-6.82-.44-15.15-1.5S777,797.41,777,797.17s6.81.44,15.15,1.5S807.25,800.78,807.22,801Z" transform="translate(-611.6 -184.18)"/><path class="cls-9" d="M812.42,785.87a21.78,21.78,0,0,1-4.4-.14c-2.72-.19-6.47-.52-10.6-.94s-7.88-.83-10.58-1.18a22.52,22.52,0,0,1-4.35-.74,22,22,0,0,1,4.42.14c2.72.19,6.46.52,10.59.94s7.87.83,10.57,1.18A22.52,22.52,0,0,1,812.42,785.87Z" transform="translate(-611.6 -184.18)"/><path class="cls-9" d="M816.44,771.18c0,.24-7.06.65-15.79.92s-15.82.31-15.83.07,7.07-.65,15.8-.92S816.44,771,816.44,771.18Z" transform="translate(-611.6 -184.18)"/><path class="cls-9" d="M818.09,759.18a20,20,0,0,1-4.32.68c-2.68.27-6.41.51-10.53.53s-7.85-.18-10.53-.43a20.15,20.15,0,0,1-4.33-.63,23.68,23.68,0,0,1,4.36,0c2.69.09,6.4.2,10.5.18s7.8-.16,10.49-.29A25.41,25.41,0,0,1,818.09,759.18Z" transform="translate(-611.6 -184.18)"/><path class="cls-18" d="M791.44,752.49a2.18,2.18,0,0,1,0,.41c0,.32,0,.72,0,1.21,0,1.06,0,2.64-.11,4.66a121.71,121.71,0,0,1-2,17,128.68,128.68,0,0,1-7.13,24.4,129,129,0,0,1-57,64.58,121.55,121.55,0,0,1-15.51,7.28c-1.87.77-3.38,1.21-4.38,1.57l-1.16.38a1.64,1.64,0,0,1-.4.1,1.51,1.51,0,0,1,.38-.18l1.12-.46c1-.41,2.47-.91,4.32-1.72a134.73,134.73,0,0,0,15.34-7.5,131.07,131.07,0,0,0,63.86-88.56A135.47,135.47,0,0,0,791,758.75c.18-2,.18-3.58.27-4.64,0-.49.05-.89.07-1.21A1.51,1.51,0,0,1,791.44,752.49Z" transform="translate(-611.6 -184.18)"/><path class="cls-17" d="M938.57,574.33S921,550.56,880.34,554.08c0,0,41.38-31.78,17-64.44,0,0,52.26,15.44,52.85-49.88,0,0,9.51,60.57,58.79,43.35,0,0,3.5,48.12,37.62,39.21-16.51,16.26-32.58,30.56-29.3,51.31" transform="translate(-611.6 -184.18)"/><g class="cls-20"><path class="cls-18" d="M938.57,574.33S921,550.56,880.34,554.08c0,0,41.38-31.78,17-64.44,0,0,52.26,15.44,52.85-49.88,0,0,9.51,60.57,58.79,43.35,0,0,3.5,48.12,37.62,39.21-16.51,16.26-32.58,30.56-29.3,51.31" transform="translate(-611.6 -184.18)"/></g><path class="cls-17" d="M938.57,574.33s-.42-27.72-33.07-24.89c0,0,30.37-17.51,10.81-43.75,0,0,42,12.4,42.46-40.07,0,0,7.63,48.66,47.22,34.82,0,0-4.72,35.3,22.68,28.15q-19.89,19.57-16,44.57" transform="translate(-611.6 -184.18)"/><g class="cls-21"><path class="cls-18" d="M938.57,574.33s-.42-27.72-33.07-24.89c0,0,30.37-17.51,10.81-43.75,0,0,42,12.4,42.46-40.07,0,0,7.63,48.66,47.22,34.82,0,0-4.72,35.3,22.68,28.15q-19.89,19.57-16,44.57" transform="translate(-611.6 -184.18)"/></g><path class="cls-17" d="M992.2,390.44a7.34,7.34,0,0,1-.4,1c-.33.74-.76,1.7-1.28,2.89s-1.27,2.77-2,4.58-1.65,3.83-2.49,6.13-1.84,4.8-2.74,7.54-1.84,5.67-2.8,8.76c-1.78,6.23-3.48,13.16-4.83,20.51s-2.12,14.46-2.62,20.92c-.19,3.23-.41,6.31-.44,9.19s-.09,5.57-.06,8,.13,4.67.19,6.62.17,3.62.28,5,.14,2.34.19,3.15a4.92,4.92,0,0,1,0,1.11,5.35,5.35,0,0,1-.18-1.09c-.09-.81-.21-1.85-.35-3.15s-.32-3-.42-5-.3-4.17-.32-6.63-.13-5.15-.05-8,.2-6,.36-9.24a187.48,187.48,0,0,1,7.49-41.59c1-3.1,1.87-6.06,2.88-8.77s1.93-5.25,2.85-7.53,1.83-4.31,2.61-6.1,1.51-3.31,2.14-4.54,1.06-2.1,1.43-2.82A5,5,0,0,1,992.2,390.44Z" transform="translate(-611.6 -184.18)"/><path class="cls-17" d="M874.91,379.19c-.2.21-3.8-4.17-9.83-7.36s-11.63-3.85-11.57-4.12a10.91,10.91,0,0,1,3.65.35,30.75,30.75,0,0,1,15.44,8.29A10.88,10.88,0,0,1,874.91,379.19Z" transform="translate(-611.6 -184.18)"/><path class="cls-17" d="M887.5,450.53a4.09,4.09,0,0,1,.68.64l1.82,1.95c1.58,1.7,3.78,4.25,6.4,7.47s5.62,7.17,8.79,11.66,6.41,9.59,9.61,15.08,5.93,10.88,8.28,15.84,4.26,9.54,5.74,13.42,2.6,7.06,3.28,9.28l.79,2.55a3.84,3.84,0,0,1,.22.91,3.49,3.49,0,0,1-.38-.85l-.94-2.51c-.78-2.18-2-5.31-3.54-9.15s-3.53-8.37-5.88-13.31-5.16-10.28-8.31-15.76-6.44-10.53-9.52-15.05-6-8.48-8.61-11.73-4.68-5.86-6.18-7.63l-1.7-2.06A3.42,3.42,0,0,1,887.5,450.53Z" transform="translate(-611.6 -184.18)"/><path class="cls-17" d="M1000.16,458.89a2.64,2.64,0,0,1-.33.75l-1.11,2.06c-.5.88-1.1,2-1.73,3.26s-1.43,2.72-2.17,4.37c-1.57,3.26-3.23,7.24-4.86,11.73A139.59,139.59,0,0,0,985.62,496a141.12,141.12,0,0,0-2.48,15.35c-.44,4.76-.65,9.06-.63,12.68,0,1.81,0,3.44.08,4.88s.1,2.68.17,3.69.09,1.7.12,2.33a3.06,3.06,0,0,1,0,.82,2.64,2.64,0,0,1-.16-.8c-.07-.63-.17-1.4-.28-2.33s-.25-2.24-.31-3.68-.22-3.09-.21-4.9a115.62,115.62,0,0,1,.45-12.77,119.53,119.53,0,0,1,6.86-30.46,114.66,114.66,0,0,1,5.06-11.72c.77-1.65,1.6-3.07,2.29-4.34s1.32-2.34,1.86-3.2l1.25-2A3.7,3.7,0,0,1,1000.16,458.89Z" transform="translate(-611.6 -184.18)"/><path class="cls-17" d="M1032.35,465.24a42.62,42.62,0,0,1-3.55,3.08,62.42,62.42,0,0,0-7.79,8.11,63.9,63.9,0,0,0-6.17,9.41,44.35,44.35,0,0,1-2.2,4.15,18.64,18.64,0,0,1,1.66-4.42,50,50,0,0,1,14.11-17.72A18.61,18.61,0,0,1,1032.35,465.24Z" transform="translate(-611.6 -184.18)"/><path class="cls-17" d="M895.52,507a19.76,19.76,0,0,1,4,2.51A56.31,56.31,0,0,1,908,517.2a57.24,57.24,0,0,1,6.75,9.2,18.9,18.9,0,0,1,2.07,4.24,41,41,0,0,1-2.58-3.92,75.18,75.18,0,0,0-6.88-8.94,73.66,73.66,0,0,0-8.19-7.76A36.77,36.77,0,0,1,895.52,507Z" transform="translate(-611.6 -184.18)"/><path class="cls-17" d="M887.21,491.8c-.12.23-3.47-1.64-8-2.79s-8.34-1.16-8.34-1.42,3.9-.62,8.56.6S887.34,491.63,887.21,491.8Z" transform="translate(-611.6 -184.18)"/><path class="cls-22" d="M853.51,440.5a10.64,10.64,0,0,1,1.07-2.71l-1.48-2.27,3.11-3.21,2.31,1.4a11,11,0,0,1,2.68-1.16l.56-2.65,4.47-.07.64,2.63a11.09,11.09,0,0,1,2.72,1.07l2.26-1.48,3.22,3.12-1.4,2.31a11.26,11.26,0,0,1,1.16,2.68l2.65.55.07,4.48-2.63.64a11,11,0,0,1-1.07,2.71l1.48,2.27L872.21,454l-2.31-1.4a11,11,0,0,1-2.68,1.16l-.55,2.65-4.48.07-.64-2.63a10.64,10.64,0,0,1-2.71-1.07l-2.27,1.48-3.22-3.11,1.41-2.32a10.8,10.8,0,0,1-1.16-2.67l-2.65-.56-.07-4.48,2.63-.64Zm5.9,2.54a4.8,4.8,0,1,0,4.72-4.88A4.8,4.8,0,0,0,859.41,443Z" transform="translate(-611.6 -184.18)"/><path class="cls-23" d="M1041.22,561.59a8.35,8.35,0,0,1,.8-2l-1.1-1.67,2.3-2.37,1.71,1a8.44,8.44,0,0,1,2-.85l.41-2,3.31,0,.47,1.94a7.73,7.73,0,0,1,2,.79l1.67-1.09,2.38,2.3-1,1.7a8.14,8.14,0,0,1,.86,2l2,.41,0,3.3-1.93.47a8.19,8.19,0,0,1-.8,2l1.1,1.67-2.3,2.37-1.71-1a8.44,8.44,0,0,1-2,.85l-.41,2-3.31,0-.47-1.94a7.73,7.73,0,0,1-2-.79l-1.68,1.09-2.37-2.3,1-1.7a8.14,8.14,0,0,1-.86-2l-2-.41-.06-3.3,1.94-.47Zm4.36,1.87a3.55,3.55,0,1,0,3.48-3.6A3.53,3.53,0,0,0,1045.58,563.46Z" transform="translate(-611.6 -184.18)"/><rect class="cls-2" x="999.63" y="425.42" width="17.09" height="7.73" transform="translate(-423.8 971.53) rotate(-64.59)"/><path class="cls-9" d="M1001,435.35a17.13,17.13,0,0,1,2,.8c1.24.53,3,1.28,5.09,2.23l-.41.15c1.83-4,4.38-9.49,7.22-15.48-.18-.51.25.69.21.56h-.06l-.06,0-.11-.06-.23-.1-.46-.22-.9-.43-1.78-.85-3.37-1.62.54-.19c-2.12,4.4-4,8.16-5.39,10.88l-1.64,3.19a9.41,9.41,0,0,1-.67,1.19,4.22,4.22,0,0,1,.41-1.11c.39-.89.86-1.95,1.4-3.21,1.23-2.76,3-6.71,5.15-11.29l.18-.37.36.18,3.39,1.59,1.78.84.91.43.46.22.23.1.11.06.06,0h0c0-.12.39,1.08.21.57-2.85,6-5.48,11.42-7.44,15.39l-.14.28-.27-.14c-2.21-1.09-4-2-5.13-2.61A12.12,12.12,0,0,1,1001,435.35Z" transform="translate(-611.6 -184.18)"/><path class="cls-2" d="M1014.66,415a7.15,7.15,0,0,0-9.51,3.38l12.89,6.12A7.14,7.14,0,0,0,1014.66,415Z" transform="translate(-611.6 -184.18)"/><path class="cls-9" d="M1014.66,415a2.07,2.07,0,0,1,.78.29,6.59,6.59,0,0,1,1.84,1.48,7,7,0,0,1,1.63,3.26,7.36,7.36,0,0,1-.52,4.64l-.16.36-.36-.17-6.46-3-6.42-3.09-.37-.17.18-.36a7.37,7.37,0,0,1,3.27-3.33,7.25,7.25,0,0,1,3.56-.8,6.58,6.58,0,0,1,2.3.5,2.06,2.06,0,0,1,.73.42,13.82,13.82,0,0,0-3-.44,7,7,0,0,0-3.25.9,6.82,6.82,0,0,0-2.87,3.09l-.19-.52,6.46,3,6.43,3.09-.53.18a6.88,6.88,0,0,0,.59-4.18,7.07,7.07,0,0,0-1.36-3.08A14.43,14.43,0,0,0,1014.66,415Z" transform="translate(-611.6 -184.18)"/><path class="cls-2" d="M1014.82,419.09a4.52,4.52,0,0,0-1.42-4.59" transform="translate(-611.6 -184.18)"/><path class="cls-9" d="M1013.4,414.5c.11-.2,1.32.45,1.78,2s-.16,2.73-.36,2.62-.06-1.16-.46-2.37S1013.25,414.7,1013.4,414.5Z" transform="translate(-611.6 -184.18)"/><path class="cls-9" d="M1006.94,422.08c.14-.2,1.73.65,3.75,1.55s3.71,1.54,3.64,1.78-1.9-.06-4-1S1006.81,422.27,1006.94,422.08Z" transform="translate(-611.6 -184.18)"/><path class="cls-9" d="M1006.08,423.89c.13-.2,1.73.65,3.75,1.55s3.7,1.55,3.64,1.78-1.9-.06-4-1S1006,424.08,1006.08,423.89Z" transform="translate(-611.6 -184.18)"/><path class="cls-9" d="M1005.22,425.71c.13-.21,1.73.64,3.75,1.54s3.7,1.55,3.64,1.78-1.91,0-4-1S1005.09,425.89,1005.22,425.71Z" transform="translate(-611.6 -184.18)"/><path class="cls-9" d="M1004.36,427.52c.13-.2,1.73.64,3.75,1.55s3.7,1.54,3.64,1.78-1.91-.06-4-1S1004.23,427.71,1004.36,427.52Z" transform="translate(-611.6 -184.18)"/><path class="cls-9" d="M1003.5,429.33c.13-.2,1.73.65,3.75,1.55s3.7,1.54,3.64,1.78-1.91-.06-4-1S1003.37,429.52,1003.5,429.33Z" transform="translate(-611.6 -184.18)"/><path class="cls-9" d="M1002.64,431.14c.13-.2,1.73.65,3.74,1.55s3.71,1.55,3.65,1.78-1.91-.06-4-1S1002.51,431.33,1002.64,431.14Z" transform="translate(-611.6 -184.18)"/><path class="cls-9" d="M1001.77,433c.14-.21,1.74.64,3.75,1.54s3.71,1.55,3.65,1.78-1.91,0-4-1S1001.64,433.14,1001.77,433Z" transform="translate(-611.6 -184.18)"/><rect class="cls-2" x="831.92" y="556.18" width="17.09" height="7.73" transform="translate(-767.88 213.04) rotate(-24.4)"/><path class="cls-9" d="M849.84,560a16.51,16.51,0,0,1-1-1.91c-.6-1.21-1.45-2.9-2.44-5l.41.16c-4,1.89-9.47,4.42-15.52,7.16-.19.51.26-.68.21-.56h0v0l0,.06.05.12.1.23.21.46.42.91.8,1.8c.53,1.17,1,2.32,1.54,3.41l-.54-.2c4.46-2,8.33-3.65,11.13-4.84l3.32-1.38a9.66,9.66,0,0,1,1.28-.47,4.76,4.76,0,0,1-1,.58l-3.14,1.55c-2.72,1.32-6.63,3.19-11.22,5.3l-.37.17-.17-.37-1.56-3.4c-.27-.59-.54-1.19-.82-1.79l-.41-.92-.21-.46-.11-.23,0-.11,0-.06v0h0c-.05.12.4-1.07.21-.56,6.05-2.75,11.55-5.2,15.61-7l.29-.12.12.28c1,2.25,1.73,4.07,2.22,5.3A10.68,10.68,0,0,1,849.84,560Z" transform="translate(-611.6 -184.18)"/><path class="cls-2" d="M826.3,566.77a7.13,7.13,0,0,0,9.44,3.54l-5.89-13A7.12,7.12,0,0,0,826.3,566.77Z" transform="translate(-611.6 -184.18)"/><path class="cls-9" d="M826.3,566.77s-.19-.23-.41-.74a6.5,6.5,0,0,1-.46-2.31,7.17,7.17,0,0,1,.86-3.54,7.44,7.44,0,0,1,3.4-3.21l.35-.17.17.36c.92,2,1.92,4.2,3,6.48l2.92,6.51.16.37-.36.15a7.41,7.41,0,0,1-4.65.44,7,7,0,0,1-3.23-1.69,6.61,6.61,0,0,1-1.44-1.86c-.24-.5-.32-.78-.28-.79a13.36,13.36,0,0,0,2,2.29,6.94,6.94,0,0,0,7.25.9l-.2.52-3-6.48c-1-2.3-2-4.48-2.91-6.51l.52.19a6.94,6.94,0,0,0-3.15,2.82,7.1,7.1,0,0,0-1,3.23A13.68,13.68,0,0,0,826.3,566.77Z" transform="translate(-611.6 -184.18)"/><path class="cls-2" d="M828.81,563.55a4.48,4.48,0,0,0-1.88,4.41" transform="translate(-611.6 -184.18)"/><path class="cls-9" d="M826.93,568c-.22.09-.72-1.19-.09-2.64s1.88-2,2-1.77-.7.92-1.19,2.1S827.17,567.91,826.93,568Z" transform="translate(-611.6 -184.18)"/><path class="cls-9" d="M836.76,566.34c-.24.07-.91-1.61-1.87-3.6s-1.83-3.57-1.63-3.71,1.41,1.28,2.4,3.35S837,566.29,836.76,566.34Z" transform="translate(-611.6 -184.18)"/><path class="cls-9" d="M838.58,565.52c-.23.06-.9-1.61-1.86-3.61s-1.84-3.57-1.64-3.71,1.42,1.28,2.41,3.35S838.8,565.46,838.58,565.52Z" transform="translate(-611.6 -184.18)"/><path class="cls-9" d="M840.41,564.69c-.23.06-.91-1.61-1.87-3.6s-1.83-3.58-1.63-3.72,1.42,1.28,2.4,3.35S840.63,564.63,840.41,564.69Z" transform="translate(-611.6 -184.18)"/><path class="cls-9" d="M842.24,563.86c-.24.07-.91-1.61-1.87-3.6s-1.83-3.58-1.63-3.71,1.42,1.27,2.4,3.34S842.46,563.8,842.24,563.86Z" transform="translate(-611.6 -184.18)"/><path class="cls-9" d="M844.06,563c-.23.07-.9-1.61-1.86-3.6s-1.83-3.57-1.64-3.71S842,557,843,559.06,844.28,563,844.06,563Z" transform="translate(-611.6 -184.18)"/><path class="cls-9" d="M845.89,562.2c-.23.07-.91-1.61-1.86-3.6s-1.84-3.57-1.64-3.71,1.42,1.27,2.41,3.34S846.11,562.14,845.89,562.2Z" transform="translate(-611.6 -184.18)"/><path class="cls-9" d="M847.72,561.37c-.23.07-.91-1.61-1.87-3.6s-1.83-3.57-1.63-3.71,1.42,1.27,2.4,3.34S847.94,561.31,847.72,561.37Z" transform="translate(-611.6 -184.18)"/><path class="cls-17" d="M880.57,360.33s19.84,19.61,24.78,31.84c4.7,11.64,7.82,22.49,7.82,22.49s5.11-9,10.86,0S957,532.27,961.45,573.17h17.32s-8.08-68.38-11.91-76-7-10.23-7-10.23-4.48-28.76-7.67-33.24a21.66,21.66,0,0,0-7-6.39s-5.76-31.32-14.07-37.71-14.7-3.2-14.7-3.2S911.07,372.87,880.57,360.33Z" transform="translate(-611.6 -184.18)"/><path class="cls-16" d="M1043,505.48c0,.27-5.41,1.09-11.51,3.89s-10.34,6.32-10.5,6.1a11.85,11.85,0,0,1,2.66-2.43,40.23,40.23,0,0,1,7.49-4.45,39.53,39.53,0,0,1,8.27-2.7A11.51,11.51,0,0,1,1043,505.48Z" transform="translate(-611.6 -184.18)"/><path class="cls-16" d="M1042.35,502c.08.26-5.46,1.72-11.56,5.13s-10.29,7.29-10.47,7.08a12.92,12.92,0,0,1,2.63-2.67,44.88,44.88,0,0,1,7.43-5.15,44.1,44.1,0,0,1,8.31-3.57A13.23,13.23,0,0,1,1042.35,502Z" transform="translate(-611.6 -184.18)"/><path class="cls-16" d="M1039,510.41c0,.26-3.62.32-7.86,1.54s-7.35,3-7.49,2.81,2.87-2.4,7.26-3.63S1039,510.2,1039,510.41Z" transform="translate(-611.6 -184.18)"/><path class="cls-9" d="M1000.76,573c-2.88-23,4.64-49.83,23-62.73l4.37,3.56s-22.8,13.57-21.13,59.34" transform="translate(-611.6 -184.18)"/><path class="cls-16" d="M906.59,540c.07.26-4.27,1.1-8.79,3.92s-7.26,6.26-7.47,6.08,2.3-3.94,7-6.81S906.6,539.75,906.59,540Z" transform="translate(-611.6 -184.18)"/><path class="cls-16" d="M906.14,537.92c.07.23-4,1.6-8.92,3.45s-8.9,3.46-9,3.24,3.73-2.19,8.7-4S906.08,537.7,906.14,537.92Z" transform="translate(-611.6 -184.18)"/><path class="cls-9" d="M956.63,578.66l-7.93-2.07a18.06,18.06,0,0,0-2.13-13.89,17.71,17.71,0,0,0-3.86-4.33A15.09,15.09,0,0,1,934,570a12.88,12.88,0,0,1-10.89-.68,11.4,11.4,0,0,1-6-7.75c-1-5,1.64-10.35,6.35-13.14a16.24,16.24,0,0,1,6-2.05l-.59-.47a21.91,21.91,0,0,0-24.71-.67l-4.62-6.77a30,30,0,0,1,34.3.93A24.23,24.23,0,0,1,941,548a25.91,25.91,0,0,1,15.61,30.67Zm-24.42-24.24a8.86,8.86,0,0,0-4.53,1.1c-1.69,1-2.78,3-2.48,4.51a3.39,3.39,0,0,0,1.79,2.11,4.77,4.77,0,0,0,3.88.33c2.48-1,4.15-4.33,3.79-7.51,0-.1,0-.21,0-.32A13.58,13.58,0,0,0,932.21,554.42Z" transform="translate(-611.6 -184.18)"/><path class="cls-17" d="M890.1,426.49a14.24,14.24,0,0,1,2.2,1.17c1.39.78,3.35,2,5.7,3.66a96.45,96.45,0,0,1,7.93,6.19,107,107,0,0,1,8.82,8.62,109.34,109.34,0,0,1,7.69,9.63,96.3,96.3,0,0,1,5.36,8.51c1.4,2.5,2.44,4.58,3.08,6a13.5,13.5,0,0,1,.94,2.31,15.24,15.24,0,0,1-1.24-2.16c-.72-1.42-1.85-3.44-3.3-5.89s-3.29-5.29-5.48-8.36a117.29,117.29,0,0,0-7.69-9.51,120.53,120.53,0,0,0-8.69-8.6c-2.83-2.48-5.47-4.61-7.77-6.29s-4.19-3-5.53-3.87A13.4,13.4,0,0,1,890.1,426.49Z" transform="translate(-611.6 -184.18)"/><path class="cls-9" d="M245.06,424.9h7.12a0,0,0,0,1,0,0v82.77a0,0,0,0,1,0,0h-7.12a9,9,0,0,1-9-9V433.86A9,9,0,0,1,245.06,424.9Z"/><path class="cls-9" d="M489.11,424.9h7.2a8.88,8.88,0,0,1,8.88,8.88v65a8.88,8.88,0,0,1-8.88,8.88h-7.2a0,0,0,0,1,0,0V424.9A0,0,0,0,1,489.11,424.9Z"/><rect class="cls-17" x="247.94" y="408.73" width="244.8" height="180.23" rx="14.12"/><path class="cls-18" d="M1013.08,612.06a56.1,56.1,0,0,0-56.1,56.1h112.2A56.1,56.1,0,0,0,1013.08,612.06Z" transform="translate(-611.6 -184.18)"/><path class="cls-2" d="M1058.27,665.43c2.36,0,4.49,0,6,0a12,12,0,0,1,2.5.16,12.7,12.7,0,0,1-2.5.18c-1.55.05-3.68.07-6,.07l-6-.05-1.83,0a3,3,0,0,1-.67-.06,2.16,2.16,0,0,1,.67-.07l1.83-.07Z" transform="translate(-611.6 -184.18)"/><path class="cls-2" d="M1054.35,648.49c4.26-2,7.8-3.47,7.92-3.21s-3.27,2-7.57,4-7.85,3.36-7.92,3.21S1050.1,650.51,1054.35,648.49Z" transform="translate(-611.6 -184.18)"/><path class="cls-2" d="M1043.83,634.62c3.11-3.55,5.8-6.26,6-6.08s-2.2,3.16-5.39,6.63-5.88,6.19-6,6.07S1040.72,638.16,1043.83,634.62Z" transform="translate(-611.6 -184.18)"/><path class="cls-2" d="M1028.82,625.76c1.6-4.44,3.11-8,3.37-7.86s-.9,3.75-2.59,8.15-3.2,7.91-3.37,7.85S1027.22,630.19,1028.82,625.76Z" transform="translate(-611.6 -184.18)"/><path class="cls-2" d="M1011.63,622.84c0-4.72.14-8.54.42-8.54s.46,3.82.41,8.54-.23,8.53-.42,8.53S1011.67,627.55,1011.63,622.84Z" transform="translate(-611.6 -184.18)"/><path class="cls-2" d="M994.49,626.05c-1.69-4.41-2.85-8-2.59-8.15s1.77,3.42,3.37,7.85,2.75,8.08,2.58,8.15S996.18,630.44,994.49,626.05Z" transform="translate(-611.6 -184.18)"/><path class="cls-2" d="M979.63,635.18c-3.19-3.48-5.6-6.45-5.39-6.63s2.9,2.52,6,6.07,5.52,6.5,5.38,6.62S982.82,638.65,979.63,635.18Z" transform="translate(-611.6 -184.18)"/><path class="cls-2" d="M969.38,649.25c-4.3-1.93-7.69-3.7-7.57-4s3.67,1.17,7.92,3.2,7.64,3.8,7.57,4S973.68,651.17,969.38,649.25Z" transform="translate(-611.6 -184.18)"/><path class="cls-2" d="M965.81,665.85c-2.35,0-4.49,0-6-.07a12.58,12.58,0,0,1-2.5-.18,11.88,11.88,0,0,1,2.5-.16c1.54,0,3.68,0,6,0l6,.12,1.83.07a2.16,2.16,0,0,1,.67.07,3.1,3.1,0,0,1-.68.06l-1.82,0Z" transform="translate(-611.6 -184.18)"/><path class="cls-18" d="M919.54,621.89a7.45,7.45,0,1,1-7.45-7.44A7.45,7.45,0,0,1,919.54,621.89Z" transform="translate(-611.6 -184.18)"/><path class="cls-16" d="M919.54,644.34a7.45,7.45,0,1,1-7.45-7.44A7.46,7.46,0,0,1,919.54,644.34Z" transform="translate(-611.6 -184.18)"/><path class="cls-9" d="M1060.66,757.6s0-.48,0-1.39,0-2.28,0-4c0-3.55,0-8.73-.07-15.38,0-13.31-.1-32.52-.17-56.19l.31.31L908,681h0l.43-.42c0,27.14,0,53.19,0,77l-.41-.4,109.65.19,31.64.11,8.45,0,2.19,0c.5,0,.76,0,.76,0s-.23,0-.71,0l-2.14,0-8.38.05-31.54.11L908,758h-.4v-.4c0-23.79,0-49.84,0-77v-.43H908l152.67.11h.32v.32c-.07,23.75-.13,43-.17,56.39,0,6.62-.06,11.77-.08,15.3,0,1.72,0,3,0,4S1060.66,757.6,1060.66,757.6Z" transform="translate(-611.6 -184.18)"/><path class="cls-9" d="M273.2,588.62H467.48a0,0,0,0,1,0,0v4.95a6.23,6.23,0,0,1-6.23,6.23H279.43a6.23,6.23,0,0,1-6.23-6.23v-4.95A0,0,0,0,1,273.2,588.62Z"/><g class="cls-19"><path d="M1044.33,691.42a4.63,4.63,0,0,0,3.18,4.88,5.11,5.11,0,0,0,5.55-2,5.71,5.71,0,0,0,.08-6,5.72,5.72,0,0,1-1.28,3.84,4.2,4.2,0,0,1-3.7,1.45,3.33,3.33,0,0,1-2.77-2.69" transform="translate(-611.6 -184.18)"/></g><path class="cls-2" d="M1053.09,689.6a4.53,4.53,0,1,1-4.53-4.53A4.53,4.53,0,0,1,1053.09,689.6Z" transform="translate(-611.6 -184.18)"/><path class="cls-9" d="M1053.09,689.6c-.07,0-.09-.4-.3-1.07a4.5,4.5,0,0,0-1.67-2.29,4.19,4.19,0,0,0-6.66,3.36,4.19,4.19,0,0,0,2.7,3.88,4.24,4.24,0,0,0,4-.52,4.55,4.55,0,0,0,1.67-2.3c.21-.66.23-1.06.3-1.06s.15.4,0,1.14a4.53,4.53,0,0,1-1.62,2.7,4.81,4.81,0,0,1-4.6.78,4.89,4.89,0,0,1,0-9.24,4.78,4.78,0,0,1,4.6.78,4.51,4.51,0,0,1,1.62,2.69C1053.24,689.19,1053.14,689.6,1053.09,689.6Z" transform="translate(-611.6 -184.18)"/><path class="cls-9" d="M1050.65,687.66c.08.23-1,.79-2,1.83s-1.53,2.12-1.76,2,0-1.44,1.15-2.64S1050.6,687.44,1050.65,687.66Z" transform="translate(-611.6 -184.18)"/><path class="cls-9" d="M1050.65,691c-.2.13-1-.7-2.07-1.43s-2.15-1.15-2.1-1.39,1.31-.18,2.58.68S1050.85,690.9,1050.65,691Z" transform="translate(-611.6 -184.18)"/><g class="cls-19"><path d="M1046.46,747.45a4.63,4.63,0,0,0,3.18,4.88,5.11,5.11,0,0,0,5.55-2,5.71,5.71,0,0,0,.08-6,5.64,5.64,0,0,1-1.29,3.83,4.17,4.17,0,0,1-3.69,1.46,3.33,3.33,0,0,1-2.78-2.69" transform="translate(-611.6 -184.18)"/></g><circle class="cls-2" cx="439.09" cy="561.45" r="4.53"/><path class="cls-9" d="M1055.22,745.63a7.54,7.54,0,0,1-.3-1.07,4.56,4.56,0,0,0-1.67-2.29,4.27,4.27,0,0,0-4-.53,4.15,4.15,0,0,0,0,7.77,4.27,4.27,0,0,0,4-.53,4.56,4.56,0,0,0,1.67-2.29c.21-.66.23-1.07.3-1.06s.14.4,0,1.14a4.51,4.51,0,0,1-1.63,2.69,4.81,4.81,0,0,1-4.6.79,4.91,4.91,0,0,1,0-9.25,4.81,4.81,0,0,1,4.6.79,4.53,4.53,0,0,1,1.63,2.69A2,2,0,0,1,1055.22,745.63Z" transform="translate(-611.6 -184.18)"/><path class="cls-9" d="M1052.78,743.69c.08.23-1,.79-2,1.83s-1.52,2.12-1.76,2,0-1.44,1.15-2.63S1052.73,743.47,1052.78,743.69Z" transform="translate(-611.6 -184.18)"/><path class="cls-9" d="M1052.78,747c-.21.13-1-.7-2.07-1.44s-2.16-1.15-2.11-1.39,1.32-.18,2.58.69S1053,746.93,1052.78,747Z" transform="translate(-611.6 -184.18)"/><g class="cls-19"><path d="M914.75,691.35a4.63,4.63,0,0,0,3.17,4.88,5.12,5.12,0,0,0,5.56-2,5.69,5.69,0,0,0,.07-6,5.65,5.65,0,0,1-1.28,3.84,4.19,4.19,0,0,1-3.69,1.45,3.33,3.33,0,0,1-2.78-2.69" transform="translate(-611.6 -184.18)"/></g><circle class="cls-2" cx="307.38" cy="505.35" r="4.53"/><path class="cls-9" d="M923.5,689.53c-.07,0-.09-.4-.3-1.07a4.54,4.54,0,0,0-1.67-2.29,4.21,4.21,0,0,0-4-.52,4.14,4.14,0,0,0,0,7.76,4.21,4.21,0,0,0,4-.52,4.51,4.51,0,0,0,1.67-2.3c.21-.66.23-1.06.3-1.06s.15.41,0,1.15a4.49,4.49,0,0,1-1.62,2.69,4.81,4.81,0,0,1-4.6.78,4.89,4.89,0,0,1,0-9.24,4.81,4.81,0,0,1,4.6.78,4.49,4.49,0,0,1,1.62,2.69C923.65,689.12,923.55,689.53,923.5,689.53Z" transform="translate(-611.6 -184.18)"/><path class="cls-9" d="M921.06,687.59c.09.23-1,.79-2,1.83s-1.53,2.12-1.76,2.05,0-1.44,1.15-2.64S921,687.37,921.06,687.59Z" transform="translate(-611.6 -184.18)"/><path class="cls-9" d="M921.06,690.94c-.2.14-1-.69-2.07-1.43s-2.15-1.15-2.1-1.39,1.31-.18,2.58.68S921.26,690.83,921.06,690.94Z" transform="translate(-611.6 -184.18)"/><g class="cls-19"><path d="M913.78,746.89a4.63,4.63,0,0,0,3.18,4.88,5.11,5.11,0,0,0,5.55-2,5.69,5.69,0,0,0,.08-6,5.7,5.7,0,0,1-1.28,3.84,4.2,4.2,0,0,1-3.7,1.45,3.33,3.33,0,0,1-2.77-2.69" transform="translate(-611.6 -184.18)"/></g><circle class="cls-2" cx="306.42" cy="560.89" r="4.53"/><path class="cls-9" d="M922.54,745.07c-.07,0-.09-.4-.3-1.06a4.51,4.51,0,0,0-1.67-2.3,4.16,4.16,0,1,0,0,6.72,4.54,4.54,0,0,0,1.67-2.29c.21-.67.23-1.07.3-1.07s.15.41,0,1.15a4.54,4.54,0,0,1-1.62,2.69,4.81,4.81,0,0,1-4.6.78,4.89,4.89,0,0,1,0-9.24,4.81,4.81,0,0,1,4.6.78,4.54,4.54,0,0,1,1.62,2.69C922.69,744.66,922.59,745.07,922.54,745.07Z" transform="translate(-611.6 -184.18)"/><path class="cls-9" d="M920.1,743.13c.09.23-1,.79-2,1.83s-1.53,2.12-1.76,2,0-1.44,1.15-2.64S920.05,742.91,920.1,743.13Z" transform="translate(-611.6 -184.18)"/><path class="cls-9" d="M920.1,746.48c-.2.14-1-.69-2.07-1.43s-2.15-1.15-2.1-1.39,1.31-.18,2.58.68S920.3,746.37,920.1,746.48Z" transform="translate(-611.6 -184.18)"/><g class="cls-19"><path d="M908,758c17.74,3.85,38.44,4,57.6,3.06,9.21-.44,19.32-1,26.69,4.53,1.62,1.22,3.51,2.8,5.41,2.09,2.76-1,2.86-6.07,5.81-6.17,1.47,0,2.59,1.36,3.07,2.76s.59,2.93,1.35,4.2,2.54,2.12,3.71,1.23c1.87-1.44-.29-4.5.42-6.74s4-2.51,6.3-1.59,4.46,2.51,6.88,2.16c1.73-.26,3.13-1.47,4.63-2.39,4.31-2.62,9.63-2.78,14.68-2.87,5.33-.09,10.82-.6,16.14-.69Z" transform="translate(-611.6 -184.18)"/></g><path class="cls-9" d="M1030.08,700.2a3.39,3.39,0,0,1-.83.3,17.44,17.44,0,0,0-2.38.79,36,36,0,0,0-8,4.53c-3.2,2.23-6.73,5.31-11.2,8a25.84,25.84,0,0,1-7.58,3.15c-2.81.7-5.8.57-8.75.66-6-.07-11.22,2.44-15.74,4.85s-8.66,4.66-11.89,6.84a43.4,43.4,0,0,0-7.12,5.83c-1.51,1.57-2.23,2.55-2.29,2.5a3.27,3.27,0,0,1,.47-.75,20.44,20.44,0,0,1,1.58-2,39.69,39.69,0,0,1,7-6.1,126.86,126.86,0,0,1,11.86-7,54.55,54.55,0,0,1,7.41-3.46,25.92,25.92,0,0,1,8.67-1.56c3-.08,5.92.05,8.6-.61a25.72,25.72,0,0,0,7.36-3c4.41-2.64,8-5.67,11.25-7.85a33.27,33.27,0,0,1,8.23-4.35,13.73,13.73,0,0,1,2.45-.65A3.54,3.54,0,0,1,1030.08,700.2Z" transform="translate(-611.6 -184.18)"/><path class="cls-9" d="M991.24,713.18a21.53,21.53,0,0,1-4.76-.73A72.45,72.45,0,0,1,965,703.82a21.13,21.13,0,0,1-3.94-2.76,38,38,0,0,1,4.24,2.23,97.21,97.21,0,0,0,21.34,8.57A36.66,36.66,0,0,1,991.24,713.18Z" transform="translate(-611.6 -184.18)"/><path class="cls-17" d="M1015.88,659.68c1.25-.66,38.07-12.51,38.07-12.51l-35.19,19.74Z" transform="translate(-611.6 -184.18)"/><path class="cls-9" d="M1012,655.72a12.45,12.45,0,0,0-12.45,12.44h24.9A12.44,12.44,0,0,0,1012,655.72Z" transform="translate(-611.6 -184.18)"/><path class="cls-9" d="M886.83,772.79c-.24,0-.43-40-.43-89.37s.19-89.39.43-89.39.43,40,.43,89.39S887.07,772.79,886.83,772.79Z" transform="translate(-611.6 -184.18)"/><path class="cls-9" d="M1081.58,772.79c-.24,0-.43-40-.43-89.37s.19-89.39.43-89.39.43,40,.43,89.39S1081.81,772.79,1081.58,772.79Z" transform="translate(-611.6 -184.18)"/><circle class="cls-9" cx="267.06" cy="432.18" r="1.91"/><circle class="cls-9" cx="267.06" cy="468.05" r="1.91"/><circle class="cls-9" cx="267.06" cy="503.91" r="1.91"/><circle class="cls-9" cx="267.06" cy="539.77" r="1.91"/><circle class="cls-9" cx="267.06" cy="575.64" r="1.91"/><circle class="cls-9" cx="479.99" cy="432.18" r="1.91"/><circle class="cls-9" cx="479.99" cy="468.05" r="1.91"/><circle class="cls-9" cx="479.99" cy="503.91" r="1.91"/><circle class="cls-9" cx="479.99" cy="539.77" r="1.91"/><circle class="cls-9" cx="479.99" cy="575.64" r="1.91"/><rect class="cls-16" x="322.68" y="389" width="83.73" height="19.74"/><path class="cls-9" d="M940.32,592.91c-.24,0-.43-4.26-.43-9.52s.19-9.53.43-9.53.42,4.27.42,9.53S940.55,592.91,940.32,592.91Z" transform="translate(-611.6 -184.18)"/><path class="cls-9" d="M948.91,592.91c-.23,0-.42-4.26-.42-9.52s.19-9.53.42-9.53.43,4.27.43,9.53S949.15,592.91,948.91,592.91Z" transform="translate(-611.6 -184.18)"/><path class="cls-9" d="M957.51,592.91c-.24,0-.43-4.26-.43-9.52s.19-9.53.43-9.53.43,4.27.43,9.53S957.75,592.91,957.51,592.91Z" transform="translate(-611.6 -184.18)"/><path class="cls-9" d="M966.11,592.91c-.24,0-.43-4.26-.43-9.52s.19-9.53.43-9.53.42,4.27.42,9.53S966.34,592.91,966.11,592.91Z" transform="translate(-611.6 -184.18)"/><path class="cls-9" d="M974.7,592.91c-.23,0-.42-4.26-.42-9.52s.19-9.53.42-9.53.43,4.27.43,9.53S974.94,592.91,974.7,592.91Z" transform="translate(-611.6 -184.18)"/><path class="cls-9" d="M983.3,592.91c-.23,0-.42-4.26-.42-9.52s.19-9.53.42-9.53.43,4.27.43,9.53S983.54,592.91,983.3,592.91Z" transform="translate(-611.6 -184.18)"/><path class="cls-9" d="M991.9,592.91c-.24,0-.43-4.26-.43-9.52s.19-9.53.43-9.53.43,4.27.43,9.53S992.13,592.91,991.9,592.91Z" transform="translate(-611.6 -184.18)"/><path class="cls-9" d="M1000.5,592.91c-.24,0-.43-4.26-.43-9.52s.19-9.53.43-9.53.42,4.27.42,9.53S1000.73,592.91,1000.5,592.91Z" transform="translate(-611.6 -184.18)"/><path class="cls-9" d="M1009.09,592.91c-.23,0-.42-4.26-.42-9.52s.19-9.53.42-9.53.43,4.27.43,9.53S1009.33,592.91,1009.09,592.91Z" transform="translate(-611.6 -184.18)"/><g class="cls-19"><path d="M1116.79,635.68c2,10.27,3.9,19.92,5.93,30.19a44.52,44.52,0,0,1-5.93,0c0-9.83,0-20.34,0-30.17" transform="translate(-611.6 -184.18)"/></g><path class="cls-18" d="M865.2,612.14c.23,0,0,30.6-.56,68.34s-1.18,68.33-1.41,68.33,0-30.6.56-68.34S865,612.14,865.2,612.14Z" transform="translate(-611.6 -184.18)"/><path class="cls-18" d="M900.82,753c-.23,0-.42-15.24-.42-34s.19-34,.42-34,.43,15.24.43,34S901.06,753,900.82,753Z" transform="translate(-611.6 -184.18)"/><path class="cls-18" d="M1061.75,598.43c0,.23-37.56.42-83.89.42s-83.9-.19-83.9-.42,37.56-.43,83.9-.43S1061.75,598.19,1061.75,598.43Z" transform="translate(-611.6 -184.18)"/></g><g id="Floor"><path class="cls-9" d="M1308.4,905.63c0,.23-156,.42-348.38.42s-348.42-.19-348.42-.42,156-.43,348.42-.43S1308.4,905.39,1308.4,905.63Z" transform="translate(-611.6 -184.18)"/></g></svg>